<svg xmlns="http://www.w3.org/2000/svg" xmlns:xlink="http://www.w3.org/1999/xlink" width="625" height="623" viewBox="0 0 625 623">
    <defs>
        <path id="a" d="M0 624h624.723V.426H0z"/>
    </defs>
    <g fill="none" fill-rule="evenodd" opacity=".099">
        <path fill="#FEFEFE" d="M517 106h106V0H517v106zm2.434-2.436h101.13V2.436h-101.13v101.128zM106.436 413.564h101.128V312.436H106.436v101.128zM104 416h106V310H104v106zM313.436 206.564h101.128V105.436H313.436v101.128zM311 209h106V103H311v106z"/>
        <path fill="#FEFEFE" d="M417.436 309.564h101.128V208.436H417.436v101.128zM415 312h106V206H415v106zM209.436 309.564h101.128V208.436H209.436v101.128zM207 312h106V206H207v106z"/>
        <path fill="#FEFEFE" d="M519.436 206.564h101.128V105.436H519.436v101.128zM517 209h106V103H517v106z"/>
        <path fill="#FEFEFE" d="M519 105v106l106-106H519zm2.397 2.398h97.816l-97.816 97.815v-97.815zM106.436 516.564h101.128V415.436H106.436v101.128zM104 519h106V413H104v106z"/>
        <path fill="#FEFEFE" d="M108.397 415.397v97.817l97.817-97.817h-97.817zM106 519V413h106L106 519zM417.436 206.564h101.128V105.436H417.436v101.128zM415 209h106V103H415v106z"/>
        <path fill="#FEFEFE" d="M516.603 107.397h-97.817l97.817 97.817v-97.817zM413 105h106v106L413 105zM209.436 516.564h101.128V415.436H209.436v101.128zM207 519h106V413H207v106z"/>
        <path fill="#FEFEFE" d="M310.603 415.397h-97.817l97.817 97.817v-97.817zM207 413h106v106L207 413zM311 106h106V0H311v106zm2.436-2.436h101.128V2.436H313.436v101.128z"/>
        <path fill="#FEFEFE" d="M310 0l106 106V0H310zm5.786 2.397h97.817v97.816L315.786 2.397zM106.436 206.564h101.128V105.436H106.436v101.128zM104 209h106V103H104v106z"/>
        <path fill="#FEFEFE" d="M207.603 107.397h-97.817l97.817 97.817v-97.817zM104 105h106v106L104 105z"/>
        <path fill="#FEFEFE" d="M106.436 309.564h101.128V208.436H106.436v101.128zM104 312h106V206H104v106z"/>
        <path fill="#FEFEFE" d="M207.603 211.786l-97.817 97.817h97.817v-97.817zM104 312l106-106v106H104z"/>
        <path fill="#FEFEFE" d="M209.436 206.564h101.128V105.436H209.436v101.128zM207 209h106V103H207v106z"/>
        <path fill="#FEFEFE" d="M211.397 108.786v97.817h97.817l-97.817-97.817zM209 209V103l106 106H209zM417.436 618.564h101.128V517.436H417.436v101.128zM415 621h106V515H415v106z"/>
        <path fill="#FEFEFE" d="M415 517v106l106-106H415zm2.397 2.397h97.816l-97.816 97.817v-97.817zM519.436 309.564h101.128V208.436H519.436v101.128zM517 312h106V206H517v106z"/>
        <g>
            <path fill="#FEFEFE" d="M620.583 259.735c0-27.794-22.592-50.406-50.36-50.406-27.767 0-50.358 22.612-50.358 50.406 0 27.793 22.591 50.406 50.358 50.406 27.768 0 50.36-22.613 50.36-50.406m-103.144 0c0-29.133 23.678-52.834 52.784-52.834 29.107 0 52.786 23.701 52.786 52.834 0 29.132-23.679 52.834-52.786 52.834-29.106 0-52.784-23.702-52.784-52.834"/>
            <mask id="b" fill="#fff">
                <use xlink:href="#a"/>
            </mask>
            <path fill="#FEFEFE" d="M107.286 103.664h100.719V2.854H107.286v100.81zm-2.426 2.428h105.57V.426H104.86v105.666z" mask="url(#b)"/>
            <path fill="#FEFEFE" d="M208.005 53.259c0-27.794-22.592-50.406-50.36-50.406-27.767 0-50.359 22.612-50.359 50.406 0 27.793 22.592 50.405 50.359 50.405 27.768 0 50.36-22.612 50.36-50.405m-103.144 0c0-29.133 23.678-52.834 52.784-52.834 29.107 0 52.785 23.701 52.785 52.834 0 29.132-23.678 52.833-52.785 52.833-29.106 0-52.784-23.7-52.784-52.833M107.286 619.855h100.719v-100.81H107.286v100.81zm-2.426 2.428h105.57V516.617H104.86v105.666z" mask="url(#b)"/>
            <path fill="#FEFEFE" d="M208.005 569.45c0-27.793-22.592-50.405-50.36-50.405-27.767 0-50.359 22.612-50.359 50.405 0 27.794 22.592 50.406 50.359 50.406 27.768 0 50.36-22.612 50.36-50.406m-103.144 0c0-29.132 23.678-52.833 52.784-52.833 29.107 0 52.785 23.7 52.785 52.833s-23.678 52.834-52.785 52.834c-29.106 0-52.784-23.701-52.784-52.834M313.575 310.14h100.72V209.33h-100.72v100.81zm-2.426 2.428h105.57V206.902H311.15v105.666z" mask="url(#b)"/>
            <path fill="#FEFEFE" d="M414.294 259.735c0-27.794-22.591-50.406-50.36-50.406-27.768 0-50.36 22.612-50.36 50.406 0 27.793 22.592 50.406 50.36 50.406 27.769 0 50.36-22.613 50.36-50.406m-103.145 0c0-29.133 23.68-52.834 52.786-52.834 29.107 0 52.785 23.701 52.785 52.834 0 29.132-23.678 52.834-52.785 52.834-29.106 0-52.786-23.702-52.786-52.834M313.575 619.855h100.72v-100.81h-100.72v100.81zm-2.426 2.428h105.57V516.617H311.15v105.666z" mask="url(#b)"/>
            <path fill="#FEFEFE" d="M414.294 569.45c0-27.793-22.591-50.405-50.36-50.405-27.768 0-50.36 22.612-50.36 50.405 0 27.794 22.592 50.406 50.36 50.406 27.769 0 50.36-22.612 50.36-50.406m-103.145 0c0-29.132 23.678-52.833 52.784-52.833 29.108 0 52.787 23.7 52.787 52.833s-23.68 52.834-52.787 52.834c-29.106 0-52.784-23.701-52.784-52.834M416.72 413.38h100.718V312.567H416.72V413.38zm-2.426 2.427h105.57V310.14h-105.57v105.667z" mask="url(#b)"/>
            <path fill="#FEFEFE" d="M517.439 362.973c0-27.793-22.592-50.406-50.36-50.406-27.767 0-50.359 22.613-50.359 50.406 0 27.795 22.592 50.407 50.359 50.407 27.768 0 50.36-22.612 50.36-50.407m-103.145 0c0-29.133 23.679-52.834 52.785-52.834 29.107 0 52.785 23.701 52.785 52.834 0 29.133-23.678 52.835-52.785 52.835-29.106 0-52.785-23.702-52.785-52.835" mask="url(#b)"/>
            <path fill="#FEFEFE" d="M491.653 362.973c0-13.562-11.024-24.596-24.574-24.596-13.55 0-24.573 11.034-24.573 24.596 0 13.563 11.024 24.597 24.573 24.597 13.55 0 24.574-11.034 24.574-24.597m-51.573 0c0-14.9 12.112-27.024 27-27.024s26.998 12.123 26.998 27.024c0 14.9-12.11 27.025-26.999 27.025-14.887 0-27-12.124-27-27.025M210.43 413.38H311.15V312.567H210.43V413.38zm-2.425 2.427h105.57V310.14h-105.57v105.667z" mask="url(#b)"/>
            <path fill="#FEFEFE" d="M311.149 362.973c0-27.793-22.592-50.406-50.36-50.406-27.767 0-50.358 22.613-50.358 50.406 0 27.795 22.591 50.407 50.358 50.407 27.768 0 50.36-22.612 50.36-50.407m-103.144 0c0-29.133 23.678-52.834 52.784-52.834 29.107 0 52.786 23.701 52.786 52.834 0 29.133-23.679 52.835-52.786 52.835-29.106 0-52.784-23.702-52.784-52.835" mask="url(#b)"/>
            <path fill="#FEFEFE" d="M285.363 362.973c0-13.562-11.024-24.596-24.574-24.596-13.549 0-24.573 11.034-24.573 24.596 0 13.563 11.024 24.597 24.573 24.597 13.55 0 24.574-11.034 24.574-24.597m-51.573 0c0-14.9 12.112-27.024 27-27.024s26.999 12.123 26.999 27.024c0 14.9-12.111 27.025-27 27.025-14.887 0-26.999-12.124-26.999-27.025M519.864 413.38h100.718V312.567H519.864V413.38zm-2.426 2.427h105.57V310.14h-105.57v105.667z" mask="url(#b)"/>
            <path fill="#FEFEFE" d="M620.583 312.575c-55.245.648-100.064 45.508-100.711 100.804h100.71V312.575zM517.439 415.807v-1.214c0-57.595 46.814-104.453 104.357-104.453h1.213v105.667h-105.57zM313.575 516.617h100.72v-100.81h-100.72v100.81zm-2.426 2.428h105.57V413.38H311.15v105.666z" mask="url(#b)"/>
            <path fill="#FEFEFE" d="M414.294 415.813c-55.245.648-100.064 45.509-100.712 100.804h100.712V415.813zM311.15 519.045v-1.214c0-57.595 46.816-104.453 104.358-104.453h1.213v105.667H311.15zM519.864 516.617h100.718v-100.81H519.864v100.81zm-2.426 2.428h105.57V413.38h-105.57v105.666z" mask="url(#b)"/>
            <path fill="#FEFEFE" d="M620.583 415.807H519.872c.647 55.296 45.466 100.155 100.71 100.803V415.807zm-103.144-1.214v-1.214h105.57v105.666h-1.213c-57.543 0-104.357-46.857-104.357-104.452zM416.72 103.664h100.718V2.854H416.72v100.81zm-2.426 2.428h105.57V.426h-105.57v105.666z" mask="url(#b)"/>
            <path fill="#FEFEFE" d="M517.432 2.86c-55.237.654-100.052 45.51-100.704 100.796 55.237-.653 100.051-45.508 100.704-100.795zM414.295 106.093v-1.214C414.295 47.283 461.108.426 518.652.426h1.213V1.64c0 57.596-46.815 104.452-104.357 104.452h-1.213zM210.43 103.664H311.15V2.854H210.43v100.81zm-2.425 2.428h105.57V.426h-105.57v105.666z" mask="url(#b)"/>
            <path fill="#FEFEFE" d="M311.142 103.657C310.489 48.37 265.675 3.514 210.438 2.86c.653 55.287 45.467 100.143 100.704 100.796M208.005 1.64V.426h1.213c57.543 0 104.357 46.856 104.357 104.452v1.214h-1.213c-57.544 0-104.357-46.857-104.357-104.452M313.575 413.378h100.72v-100.81h-100.72v100.81zm-2.426 2.428h105.57V310.14H311.15v105.666z" mask="url(#b)"/>
            <path fill="#FEFEFE" d="M414.287 413.371c-.652-55.287-45.467-100.142-100.705-100.795.653 55.287 45.467 100.142 100.705 100.795M311.15 311.354v-1.214h1.213c57.543 0 104.358 46.856 104.358 104.452v1.214h-1.213c-57.543 0-104.358-46.857-104.358-104.452M519.864 619.855h100.718v-100.81H519.864v100.81zm-2.426 2.428h105.57V516.617h-105.57v105.666z" mask="url(#b)"/>
            <path fill="#FEFEFE" d="M620.576 519.052c-55.237.654-100.052 45.509-100.704 100.796 55.237-.653 100.051-45.508 100.704-100.796zM517.439 622.283v-1.214c0-57.595 46.813-104.452 104.357-104.452h1.213v1.214c0 57.596-46.815 104.452-104.357 104.452h-1.213zM210.43 619.855H311.15v-100.81H210.43v100.81zm-2.425 2.428h105.57V516.617h-105.57v105.666z" mask="url(#b)"/>
            <path fill="#FEFEFE" d="M311.142 519.052c-55.237.654-100.051 45.509-100.704 100.796 55.237-.653 100.051-45.508 100.704-100.796zM208.005 622.283v-1.214c0-57.595 46.813-104.452 104.357-104.452h1.213v1.214c0 57.596-46.814 104.452-104.357 104.452h-1.213zM416.72 516.617h100.718v-100.81H416.72v100.81zm-2.426 2.428h105.57V413.38h-105.57v105.666z" mask="url(#b)"/>
            <path fill="#FEFEFE" d="M416.72 415.814v100.803h100.711c-.647-55.295-45.465-100.154-100.71-100.803zm-2.426 103.231V413.38h1.213c57.543 0 104.357 46.857 104.357 104.452v1.214h-105.57z" mask="url(#b)"/>
            <path fill="#FEFEFE" d="M416.72 467.44v49.178h49.133c-.637-26.834-22.324-48.541-49.133-49.177zm-2.426 51.606v-54.048h1.213c29.106 0 52.786 23.701 52.786 52.834v1.214h-53.999zM4.14 310.141h100.72v-100.81H4.14v100.81zm-2.425 2.428h105.571V206.902H1.715V312.57zM4.14 619.857h100.72V519.045H4.14v100.812zm-2.425 2.428h105.57V516.617H1.715v105.668z" mask="url(#b)"/>
            <path fill="#FEFEFE" d="M104.86 520.762L5.855 619.857h99.003v-99.095zM0 622.285L107.285 514.9v107.384H0z" mask="url(#b)"/>
            <path fill="#FEFEFE" d="M4.14 516.617h100.72v-100.81H4.14v100.81zm-2.425 2.428h105.57V413.38H1.715v105.666z" mask="url(#b)"/>
            <path fill="#FEFEFE" d="M104.86 466.212c0-27.793-22.592-50.405-50.36-50.405-27.767 0-50.359 22.612-50.359 50.405 0 27.794 22.592 50.406 50.359 50.406 27.768 0 50.36-22.612 50.36-50.406m-103.145 0c0-29.132 23.678-52.833 52.785-52.833 29.107 0 52.785 23.7 52.785 52.833S83.607 519.046 54.5 519.046c-29.107 0-52.785-23.701-52.785-52.834M4.14 206.902h100.72v-100.81H4.14v100.81zm-2.425 2.428h105.57V103.664H1.715V209.33z" mask="url(#b)"/>
            <path fill="#FEFEFE" d="M104.86 156.497c0-27.794-22.592-50.406-50.36-50.406-27.767 0-50.359 22.612-50.359 50.406 0 27.793 22.592 50.405 50.359 50.405 27.768 0 50.36-22.612 50.36-50.405m-103.145 0c0-29.133 23.678-52.834 52.785-52.834 29.107 0 52.785 23.701 52.785 52.834 0 29.132-23.678 52.834-52.785 52.834-29.107 0-52.785-23.702-52.785-52.834" mask="url(#b)"/>
            <path fill="#FEFEFE" d="M79.073 156.497c0-13.562-11.024-24.596-24.573-24.596-13.55 0-24.574 11.034-24.574 24.596s11.025 24.596 24.574 24.596c13.55 0 24.573-11.034 24.573-24.596m-51.572 0c0-14.9 12.112-27.024 26.999-27.024 14.888 0 27 12.123 27 27.024 0 14.9-12.112 27.024-27 27.024-14.887 0-27-12.123-27-27.024M4.14 103.664h100.72V2.854H4.14v100.81zm-2.425 2.428h105.571V.426H1.715v105.666z" mask="url(#b)"/>
            <path fill="#FEFEFE" d="M104.852 103.657C104.2 48.37 59.385 3.514 4.148 2.86c.653 55.287 45.467 100.143 100.704 100.796M1.715 1.64V.426h1.213c57.543 0 104.357 46.856 104.357 104.452v1.214h-1.213C48.53 106.092 1.715 59.235 1.715 1.64M4.14 413.38h100.72V312.57H4.14v100.81zm-2.425 2.427h105.57V310.141H1.715v105.666z" mask="url(#b)"/>
            <path fill="#FEFEFE" d="M104.852 312.576C49.615 313.23 4.801 358.085 4.148 413.372c55.237-.653 100.052-45.509 100.704-100.796zM1.715 415.807v-1.214c0-57.595 46.814-104.452 104.357-104.452h1.213v1.214c0 57.596-46.814 104.452-104.357 104.452H1.715z" mask="url(#b)"/>
        </g>
    </g>
</svg>
