<svg xmlns="http://www.w3.org/2000/svg" xmlns:xlink="http://www.w3.org/1999/xlink" width="16" height="20" viewBox="0 0 16 20">
    <defs>
        <path id="a" d="M0 0h16v20H0z"/>
    </defs>
    <g fill="none" fill-rule="evenodd">
        <mask id="b" fill="#fff">
            <use xlink:href="#a"/>
        </mask>
        <path fill="#1D1D1B" d="M10.904 3.901C10.952 2.306 9.549.967 7.9 1.01c-1.696.043-2.867 1.521-2.812 2.892h5.815zM2.207 4.926c-.041.001-.11.093-.117.149-.03.225-.038.453-.058.68-.086.951-.175 1.902-.26 2.854-.084.951-.163 1.904-.248 2.855-.085.952-.175 1.903-.26 2.855-.084.951-.151 1.905-.253 2.855-.053.494.095.897.437 1.235.42.415.941.585 1.526.584 1.363-.002 2.725 0 4.088-.001 2.015 0 4.03 0 6.044-.002.47 0 .898-.146 1.27-.434.395-.308.652-.709.612-1.222-.098-1.244-.225-2.485-.335-3.728-.124-1.392-.24-2.785-.363-4.177-.128-1.45-.26-2.9-.385-4.35-.011-.125-.054-.164-.179-.162-.424.007-10.907 0-11.519.01zM2.555 20c-.207-.052-.419-.09-.619-.16-.98-.343-1.675-.97-1.896-2.015-.06-.286-.041-.596-.017-.89.135-1.62.284-3.238.428-4.857.13-1.457.258-2.914.389-4.37.1-1.108.2-2.214.305-3.321.029-.306.223-.474.536-.475.717-.002 1.435 0 2.152 0h.227c.047-1.304.567-2.36 1.604-3.14.774-.583 1.66-.828 2.624-.761 1.984.138 3.642 1.824 3.642 3.9h.206l2.152.001c.341 0 .526.16.556.493.106 1.16.207 2.318.311 3.477.1 1.094.202 2.188.3 3.282.084.952.163 1.904.247 2.856.085.952.135 1.909.267 2.854.256 1.825-1.137 2.886-2.389 3.086-.05.008-.098.026-.147.04H2.555z" mask="url(#b)"/>
    </g>
</svg>
