<?xml version="1.0" encoding="utf-8"?>
<!-- Generator: Adobe Illustrator 23.0.3, SVG Export Plug-In . SVG Version: 6.00 Build 0)  -->
<svg version="1.1" id="Ebene_1" xmlns="http://www.w3.org/2000/svg" xmlns:xlink="http://www.w3.org/1999/xlink" x="0px" y="0px"
     viewBox="0 0 85 85" style="enable-background:new 0 0 85 85;" xml:space="preserve">
<style type="text/css">
    .st0{opacity:0.15;}
    .st1{fill:#FFFFFF;}
</style>
<g class="st0">
    <g>
        <g>
            <path class="st1" d="M71.2,84.8H56.8V70.4h14.4V84.8z M57,84.6H71V70.7H57V84.6z"/>
        </g>
    </g>
    <g>
        <g>
            <path class="st1" d="M28.7,28.1H14.3V13.7h14.4V28.1z M14.5,27.9h13.9V14H14.5V27.9z"/>
        </g>
    </g>
    <g>
        <g>
            <path class="st1" d="M71.2,28.1H56.8V13.7h14.4V28.1z M57,27.9H71V14H57V27.9z"/>
        </g>
    </g>
    <g>
        <g>
            <path class="st1" d="M14.5,14H0.1V-0.5h14.4V14z M0.3,13.7h13.9V-0.2H0.3V13.7z"/>
        </g>
    </g>
    <g>
        <g>
            <path class="st1" d="M57,42.3H42.6V27.9H57V42.3z M42.9,42.1h13.9V28.1H42.9V42.1z"/>
        </g>
    </g>
    <g>
        <g>
            <path class="st1" d="M71.2,70.7H56.8V56.2h14.4V70.7z M57,70.4H71V56.5H57V70.4z"/>
        </g>
        <g>
            <path class="st1" d="M71.2,70.7H56.6l0.2-0.2l14.4-14.4V70.7z M57.2,70.4H71V56.7L57.2,70.4z"/>
        </g>
    </g>
    <g>
        <g>
            <path class="st1" d="M57,70.7H42.6V56.2H57V70.7z M42.9,70.4h13.9V56.5H42.9V70.4z"/>
        </g>
        <g>
            <path class="st1" d="M57.2,70.7H42.6V56.1l0.2,0.2L57.2,70.7z M42.9,70.4h13.7L42.9,56.7V70.4z"/>
        </g>
    </g>
    <g>
        <g>
            <path class="st1" d="M42.9,14H28.4V-0.5h14.4V14z M28.7,13.7h13.9V-0.2H28.7V13.7z"/>
        </g>
        <g>
            <path class="st1" d="M28.4,14.1V-0.5H43L28.4,14.1z M28.7-0.2v13.7L42.4-0.2H28.7z"/>
        </g>
    </g>
    <g>
        <g>
            <path class="st1" d="M28.7,14H14.3V-0.5h14.4V14z M14.5,13.7h13.9V-0.2H14.5V13.7z"/>
        </g>
        <g>
            <path class="st1" d="M28.7,14.1L14.1-0.5h14.6V14.1z M14.7-0.2l13.7,13.7V-0.2H14.7z"/>
        </g>
    </g>
    <g>
        <g>
            <path class="st1" d="M28.7,56.5H14.3V42.1h14.4V56.5z M14.5,56.2h13.9V42.3H14.5V56.2z"/>
        </g>
        <g>
            <path class="st1" d="M28.7,56.5H14.1l0.2-0.2l14.4-14.4V56.5z M14.7,56.2h13.7V42.5L14.7,56.2z"/>
        </g>
    </g>
    <g>
        <g>
            <path class="st1" d="M57,28.1H42.6V13.7H57V28.1z M42.9,27.9h13.9V14H42.9V27.9z"/>
        </g>
        <g>
            <path class="st1" d="M57,28.1H42.4L57,13.5V28.1z M43,27.9h13.7V14.1L43,27.9z"/>
        </g>
    </g>
    <g>
        <g>
            <path class="st1" d="M71.2,56.5H56.8V42.1h14.4V56.5z M57,56.2H71V42.3H57V56.2z"/>
        </g>
        <g>
            <path class="st1" d="M64,56.5c-4,0-7.2-3.2-7.2-7.2s3.2-7.2,7.2-7.2s7.2,3.2,7.2,7.2S68,56.5,64,56.5z M64,42.3c-3.8,0-7,3.1-7,7
                c0,3.8,3.1,7,7,7c3.8,0,7-3.1,7-7C71,45.4,67.8,42.3,64,42.3z"/>
        </g>
    </g>
    <g>
        <g>
            <path class="st1" d="M57,14H42.6V-0.5H57V14z M42.9,13.7h13.9V-0.2H42.9V13.7z"/>
        </g>
        <g>
            <path class="st1" d="M49.8,14c-4,0-7.2-3.2-7.2-7.2s3.2-7.2,7.2-7.2S57,2.8,57,6.7S53.8,14,49.8,14z M49.8-0.2c-3.8,0-7,3.1-7,7
                c0,3.8,3.1,7,7,7s7-3.1,7-7C56.8,2.9,53.7-0.2,49.8-0.2z"/>
        </g>
    </g>
    <g>
        <g>
            <path class="st1" d="M42.9,56.5H28.4V42.1h14.4V56.5z M28.7,56.2h13.9V42.3H28.7V56.2z"/>
        </g>
        <g>
            <path class="st1" d="M35.6,56.5c-4,0-7.2-3.2-7.2-7.2s3.2-7.2,7.2-7.2s7.2,3.2,7.2,7.2S39.6,56.5,35.6,56.5z M35.6,42.3
                c-3.8,0-7,3.1-7,7c0,3.8,3.1,7,7,7c3.8,0,7-3.1,7-7C42.6,45.4,39.5,42.3,35.6,42.3z"/>
        </g>
    </g>
    <g>
        <g>
            <path class="st1" d="M14.5,28.1H0.1V13.7h14.4V28.1z M0.3,27.9h13.9V14H0.3V27.9z"/>
        </g>
        <g>
            <path class="st1" d="M7.3,28.1c-4,0-7.2-3.2-7.2-7.2s3.2-7.2,7.2-7.2s7.2,3.2,7.2,7.2S11.3,28.1,7.3,28.1z M7.3,14
                c-3.8,0-7,3.1-7,7s3.1,7,7,7s7-3.1,7-7S11.1,14,7.3,14z"/>
        </g>
    </g>
    <g>
        <g>
            <path class="st1" d="M28.7,84.8H14.3V70.4h14.4V84.8z M14.5,84.6h13.9V70.7H14.5V84.6z"/>
        </g>
        <g>
            <path class="st1" d="M21.5,84.8c-4,0-7.2-3.2-7.2-7.2s3.2-7.2,7.2-7.2s7.2,3.2,7.2,7.2S25.4,84.8,21.5,84.8z M21.5,70.7
                c-3.8,0-7,3.1-7,7c0,3.8,3.1,7,7,7s7-3.1,7-7C28.4,73.8,25.3,70.7,21.5,70.7z"/>
        </g>
        <g>
            <path class="st1" d="M21.5,81.3c-2,0-3.7-1.6-3.7-3.7c0-2,1.6-3.7,3.7-3.7c2,0,3.7,1.6,3.7,3.7C25.1,79.6,23.5,81.3,21.5,81.3z
                 M21.5,74.2c-1.9,0-3.4,1.5-3.4,3.4s1.5,3.4,3.4,3.4s3.4-1.5,3.4-3.4S23.4,74.2,21.5,74.2z"/>
        </g>
    </g>
    <g>
        <g>
            <path class="st1" d="M57,84.8H42.6V70.4H57V84.8z M42.9,84.6h13.9V70.7H42.9V84.6z"/>
        </g>
        <g>
            <path class="st1" d="M49.8,84.8c-4,0-7.2-3.2-7.2-7.2s3.2-7.2,7.2-7.2s7.2,3.2,7.2,7.2S53.8,84.8,49.8,84.8z M49.8,70.7
                c-3.8,0-7,3.1-7,7c0,3.8,3.1,7,7,7s7-3.1,7-7C56.8,73.8,53.7,70.7,49.8,70.7z"/>
        </g>
        <g>
            <path class="st1" d="M49.8,81.3c-2,0-3.7-1.6-3.7-3.7c0-2,1.6-3.7,3.7-3.7s3.7,1.6,3.7,3.7C53.5,79.6,51.8,81.3,49.8,81.3z
                 M49.8,74.2c-1.9,0-3.4,1.5-3.4,3.4s1.5,3.4,3.4,3.4s3.4-1.5,3.4-3.4S51.7,74.2,49.8,74.2z"/>
        </g>
    </g>
    <g>
        <g>
            <path class="st1" d="M71.2,14H56.8V-0.5h14.4V14z M57,13.7H71V-0.2H57V13.7z"/>
        </g>
        <g>
            <path class="st1" d="M64,14c-4,0-7.2-3.2-7.2-7.2S60-0.5,64-0.5s7.2,3.2,7.2,7.2S68,14,64,14z M64-0.2c-3.8,0-7,3.1-7,7
                c0,3.8,3.1,7,7,7c3.8,0,7-3.1,7-7C71,2.9,67.8-0.2,64-0.2z"/>
        </g>
        <g>
            <path class="st1" d="M64,10.4c-2,0-3.7-1.6-3.7-3.7c0-2,1.6-3.7,3.7-3.7c2,0,3.7,1.6,3.7,3.7C67.7,8.8,66,10.4,64,10.4z M64,3.3
                c-1.9,0-3.4,1.5-3.4,3.4s1.5,3.4,3.4,3.4s3.4-1.5,3.4-3.4S65.9,3.3,64,3.3z"/>
        </g>
    </g>
    <g>
        <g>
            <path class="st1" d="M42.9,42.3H28.4V27.9h14.4V42.3z M28.7,42.1h13.9V28.1H28.7V42.1z"/>
        </g>
        <g>
            <path class="st1" d="M35.6,42.3c-4,0-7.2-3.2-7.2-7.2s3.2-7.2,7.2-7.2s7.2,3.2,7.2,7.2S39.6,42.3,35.6,42.3z M35.6,28.1
                c-3.8,0-7,3.1-7,7c0,3.8,3.1,7,7,7c3.8,0,7-3.1,7-7C42.6,31.3,39.5,28.1,35.6,28.1z"/>
        </g>
        <g>
            <path class="st1" d="M35.6,38.8c-2,0-3.7-1.6-3.7-3.7c0-2,1.6-3.7,3.7-3.7c2,0,3.7,1.6,3.7,3.7C39.3,37.1,37.7,38.8,35.6,38.8z
                 M35.6,31.7c-1.9,0-3.4,1.5-3.4,3.4s1.5,3.4,3.4,3.4s3.4-1.5,3.4-3.4S37.5,31.7,35.6,31.7z"/>
        </g>
    </g>
    <g>
        <g>
            <path class="st1" d="M14.5,84.8H0.1V70.4h14.4V84.8z M0.3,84.6h13.9V70.7H0.3V84.6z"/>
        </g>
        <g>
            <path class="st1" d="M0.2,84.8H0.1V70.4h14.4v0.1C14.5,78.4,8.1,84.8,0.2,84.8z M0.3,70.7v13.9c7.6-0.1,13.9-6.3,13.9-13.9H0.3z"
                />
        </g>
    </g>
    <g>
        <g>
            <path class="st1" d="M28.7,42.3H14.3V27.9h14.4V42.3z M14.5,42.1h13.9V28.1H14.5V42.1z"/>
        </g>
        <g>
            <path class="st1" d="M14.4,42.3h-0.1V27.9h14.4V28C28.7,35.9,22.3,42.3,14.4,42.3z M14.5,28.1v13.9c7.6-0.1,13.9-6.3,13.9-13.9
                H14.5z"/>
        </g>
    </g>
    <g>
        <g>
            <path class="st1" d="M42.9,70.7H28.4V56.2h14.4V70.7z M28.7,70.4h13.9V56.5H28.7V70.4z"/>
        </g>
        <g>
            <path class="st1" d="M28.6,70.7h-0.1V56.2h14.4v0.1C42.9,64.2,36.4,70.7,28.6,70.7z M28.7,56.5v13.9c7.6-0.1,13.9-6.3,13.9-13.9
                H28.7z"/>
        </g>
    </g>
    <g>
        <g>
            <path class="st1" d="M14.5,70.7H0.1V56.2h14.4V70.7z M0.3,70.4h13.9V56.5H0.3V70.4z"/>
        </g>
        <g>
            <path class="st1" d="M14.5,70.7H0.1V56.2h0.1c7.9,0,14.3,6.4,14.3,14.3V70.7z M0.3,70.4h13.9C14.2,62.8,8,56.5,0.3,56.5V70.4z"/>
        </g>
    </g>
    <g>
        <g>
            <path class="st1" d="M42.9,84.8H28.4V70.4h14.4V84.8z M28.7,84.6h13.9V70.7H28.7V84.6z"/>
        </g>
        <g>
            <path class="st1" d="M42.9,84.8h-0.1c-7.9,0-14.3-6.4-14.3-14.3v-0.1h0.1c7.9,0,14.3,6.4,14.3,14.3V84.8z M28.7,70.7
                c0.1,7.6,6.3,13.9,13.9,13.9C42.5,76.9,36.3,70.7,28.7,70.7z"/>
        </g>
    </g>
    <g>
        <g>
            <path class="st1" d="M42.9,28.1H28.4V13.7h14.4V28.1z M28.7,27.9h13.9V14H28.7V27.9z"/>
        </g>
        <g>
            <path class="st1" d="M28.6,28.1h-0.1V28c0-7.9,6.4-14.3,14.3-14.3h0.1v0.1C42.9,21.7,36.4,28.1,28.6,28.1z M42.6,14
                C35,14,28.8,20.2,28.7,27.9C36.3,27.8,42.5,21.6,42.6,14z"/>
        </g>
    </g>
    <g>
        <g>
            <path class="st1" d="M14.5,56.5H0.1V42.1h14.4V56.5z M0.3,56.2h13.9V42.3H0.3V56.2z"/>
        </g>
        <g>
            <path class="st1" d="M0.2,56.5H0.1v-0.1c0-7.9,6.4-14.3,14.3-14.3h0.1v0.1C14.5,50.1,8.1,56.5,0.2,56.5z M14.3,42.3
                C6.6,42.4,0.4,48.6,0.3,56.2C8,56.2,14.2,50,14.3,42.3z"/>
        </g>
    </g>
    <g>
        <g>
            <path class="st1" d="M71.2,42.3H56.8V27.9h14.4V42.3z M57,42.1H71V28.1H57V42.1z"/>
        </g>
        <g>
            <path class="st1" d="M56.9,42.3h-0.1v-0.1c0-7.9,6.4-14.3,14.3-14.3h0.1V28C71.2,35.9,64.8,42.3,56.9,42.3z M71,28.1
                c-7.6,0.1-13.9,6.3-13.9,13.9C64.7,42,70.9,35.8,71,28.1z"/>
        </g>
    </g>
    <g>
        <g>
            <path class="st1" d="M57,56.5H42.6V42.1H57V56.5z M42.9,56.2h13.9V42.3H42.9V56.2z"/>
        </g>
        <g>
            <path class="st1" d="M42.7,56.5h-0.1v-0.1c0-7.9,6.4-14.3,14.3-14.3H57v0.1C57,50.1,50.6,56.5,42.7,56.5z M56.8,42.3
                c-7.6,0.1-13.9,6.3-13.9,13.9C50.5,56.2,56.7,50,56.8,42.3z"/>
        </g>
    </g>
    <g>
        <g>
            <path class="st1" d="M28.7,70.7H14.3V56.2h14.4V70.7z M14.5,70.4h13.9V56.5H14.5V70.4z"/>
        </g>
        <g>
            <path class="st1" d="M28.7,70.7h-0.1c-7.9,0-14.3-6.4-14.3-14.3v-0.1h14.4V70.7z M14.5,56.5c0.1,7.6,6.3,13.9,13.9,13.9V56.5
                H14.5z"/>
        </g>
        <g>
            <path class="st1" d="M28.7,63.6h-0.1c-4,0-7.2-3.2-7.2-7.2v-0.1h7.3V63.6z M21.6,56.5c0.1,3.7,3.1,6.8,6.8,6.8v-6.8H21.6z"/>
        </g>
    </g>
    <g>
        <g>
            <path class="st1" d="M14.5,42.3H0.1V27.9h14.4V42.3z M0.3,42.1h13.9V28.1H0.3V42.1z"/>
        </g>
        <g>
            <path class="st1" d="M14.5,42.3h-0.1C6.5,42.3,0.1,35.9,0.1,28v-0.1h14.4V42.3z M0.3,28.1C0.4,35.8,6.6,42,14.3,42.1V28.1H0.3z"
                />
        </g>
        <g>
            <path class="st1" d="M14.5,35.2h-0.1c-4,0-7.2-3.2-7.2-7.2v-0.1h7.3V35.2z M7.4,28.1c0.1,3.7,3.1,6.8,6.8,6.8v-6.8H7.4z"/>
        </g>
    </g>
    <g>
        <g>
            <polygon class="st1" points="85.3,42.3 71,42.3 71,27.9 85.3,27.9 85.3,28.1 71.2,28.1 71.2,42.1 85.3,42.1            "/>
        </g>
    </g>
    <g>
        <g>
            <polygon class="st1" points="85.3,56.5 71,56.5 71,42.1 85.3,42.1 85.3,42.3 71.2,42.3 71.2,56.2 85.3,56.2            "/>
        </g>
        <g>
            <path class="st1" d="M71,56.7V42.1h14.6l-0.2,0.2L71,56.7z M71.2,42.3v13.7L85,42.3H71.2z"/>
        </g>
    </g>
    <g>
        <g>
            <polygon class="st1" points="85.3,14 71,14 71,-0.5 85.3,-0.5 85.3,-0.2 71.2,-0.2 71.2,13.7 85.3,13.7            "/>
        </g>
        <g>
            <polygon class="st1" points="85.2,13.9 70.8,-0.5 85.3,-0.5 85.3,-0.2 71.4,-0.2 85.3,13.7            "/>
        </g>
    </g>
    <g>
        <g>
            <polygon class="st1" points="85.3,28.1 71,28.1 71,13.7 85.3,13.7 85.3,14 71.2,14 71.2,27.9 85.3,27.9            "/>
        </g>
        <g>
            <polygon class="st1" points="85.3,28.1 70.8,28.1 71,27.9 85.2,13.7 85.3,13.9 71.4,27.9 85.3,27.9            "/>
        </g>
    </g>
    <g>
        <g>
            <polygon class="st1" points="85.3,70.7 71,70.7 71,56.2 85.3,56.2 85.3,56.5 71.2,56.5 71.2,70.4 85.3,70.4            "/>
        </g>
        <g>
            <path class="st1" d="M78.2,70.7c-4,0-7.2-3.2-7.2-7.2s3.2-7.2,7.2-7.2s7.2,3.2,7.2,7.2S82.1,70.7,78.2,70.7z M78.2,56.5
                c-3.8,0-7,3.1-7,7s3.1,7,7,7s7-3.1,7-7S82,56.5,78.2,56.5z"/>
        </g>
    </g>
    <g>
        <g>
            <polygon class="st1" points="85.3,84.8 71,84.8 71,70.4 85.3,70.4 85.3,70.7 71.2,70.7 71.2,84.6 85.3,84.6            "/>
        </g>
        <g>
            <path class="st1" d="M71.1,84.8H71v-0.1c0-7.9,6.4-14.3,14.3-14.3h0.1v0.1C85.4,78.4,79,84.8,71.1,84.8z M85.1,70.7
                c-7.6,0.1-13.9,6.3-13.9,13.9C78.9,84.5,85.1,78.3,85.1,70.7z"/>
        </g>
    </g>
</g>
</svg>
