<svg xmlns="http://www.w3.org/2000/svg" xmlns:xlink="http://www.w3.org/1999/xlink" width="40" height="45" viewBox="0 0 40 45">
    <defs>
        <path id="a" d="M0 .186h39.68v44.147H0z"/>
    </defs>
    <g fill="none" fill-rule="evenodd">
        <g transform="translate(0 .147)">
            <mask id="b" fill="#fff">
                <use xlink:href="#a"/>
            </mask>
            <path fill="#fff" d="M25.721 43.366h-4.053l-4.083-3.945v-2.676c.507 0 1.013 0 1.474-.05l6.662 6.671zm8.921-30.71H21.977v-1.47c0-.348.082-.697.267-.992.204-.327.549-.65 1.112-.642.926.013 3.816.004 4.831.001.362-.001.722.093 1.017.301.327.23.647.619.622 1.25h4.816v1.552h5.038c-1.515-2.335-3.515-2.924-5.108-3.06-.087-.401-.746-1.948-2.807-3.037a5.484 5.484 0 0 0-.48-1.753c-.905-1.993-2.44-3.36-4.388-4.29-.266-.129-.528-.322-.98-.302.84.719 1.532 1.398 1.65 2.465-.858-.614-1.618-1.339-2.552-1.826-.94-.49-1.895-.844-2.98-.573 1.283.167 2.266.815 3.056 1.807C23.793 1.472 22.461.996 21.046.8c-1.41-.195-3.255.177-4.12.79 2.872-.607 5.938-.02 6.842 1.312-4.393-1.201-7.215-1.05-8.621.46 2.212-1.017 4.465-.893 6.223-.132a10.87 10.87 0 0 0-2.11.306c-.288.071-2.473.712-2.81 1.014 1.842-.23 4.165-.524 4.934.226-1.053.07-2.101-.01-3.132.206-1.036.217-2 .55-2.666 1.446 1.096-.683 2.268-.806 3.508-.54-1.394.348-2.725.824-3.945 1.57-1.212.743-2.403 2.2-2.684 3.224 1.836-2.29 4.58-3.78 6.122-3.325-4.157 1.857-6.243 3.763-6.373 5.824 1.337-2.75 3.864-4.15 6.132-4.295-1.4.802-2.576 1.621-3.47 2.771-.918 1.178-1.457 2.504-1.58 3.99 1.184-2.839 2.427-4.364 3.947-4.798-1.28 1.96-2.572 4.036-2.096 5.257 1.097-3.45 2.315-4.63 3.863-4.98-.947 1.255-1.625 2.544-1.877 4.206.477-.545 1.301-1.49 2.026-1.645 0 0 .29.63.346 1.254a4.606 4.606 0 0 0-3.437 2.343L0 44.332h1.572c1.922 0 4.013-1.003 4.871-2.723l2.544-7.122a27.771 27.771 0 0 0 3.946 1.613l4.652 4.652 2.609 2.615h-1.059a.957.957 0 0 0-.921.966h15.66c0-.486-.455-.897-.922-.966h-5.757l-4.168-3.946-.019-3.49c13.022-8.58 9.3-20.369 9.3-21.03 0-1.374.96-2.245 2.334-2.245z" mask="url(#b)"/>
        </g>
    </g>
</svg>
