<?xml version="1.0" encoding="utf-8"?>
<!-- Generator: Adobe Illustrator 23.0.3, SVG Export Plug-In . SVG Version: 6.00 Build 0)  -->
<svg version="1.1" id="Ebene_1" xmlns="http://www.w3.org/2000/svg" xmlns:xlink="http://www.w3.org/1999/xlink" x="0px" y="0px"
     viewBox="0 0 992.1 425.2" style="enable-background:new 0 0 992.1 425.2;" xml:space="preserve">
<style type="text/css">
    .st0{fill:#FFFFFF;}
</style>
<g>
    <g>
        <path class="st0" d="M300.1,177.7l39.5-71.6c-9.7,0-18.6,5.2-23.2,13.7l-39.5,71.5l-4.4,7.9l-31.4-57.9
            c-11.8-21.7-34.5-35.2-59.2-35.2l71.6,127.3l-24.8,44.2c-4.7,8.4-4.4,18.8,0.7,26.9L300.1,177.7L300.1,177.7z"/>
        <path class="st0" d="M852.2,106.1L852.2,106.1c18.3,0,33.2,14.8,33.2,33.2v121h52.5c6.2,0,14.5,5,14.5,11.2H852.2V106.1z"/>
        <path class="st0" d="M992.7,156.4v-16.9c0-18.4-14.9-33.4-33.4-33.4v92.4h0v39.5c0,18.4,14.9,33.4,33.4,33.4L992.7,156.4
            L992.7,156.4z"/>
        <path class="st0" d="M769.6,106.1H740l-59.8,165.4h13l17.3-48.2h59c-2.4-6.6-8.7-11-15.7-11h-39.5l30-83.4l39.9,109.9
            c7.1,19.6,25.7,32.6,46.6,32.6L769.6,106.1z"/>
        <path class="st0" d="M600.1,260.2h-27.6V117.3h27.1c24.6,0,35.9,4.9,35.9,32.9c0,22.4-7.2,31.1-34.5,31.1h-1.5
            c-5.8,0-15.5,4.7-15.5,10.5h17.7c28.7,0,36.3,10.8,36.3,33.6C638,254.6,625.2,260.2,600.1,260.2 M632.6,185.9
            c22.9-2.7,35.9-16.1,35.9-35.9c0-34.7-25.1-43.9-69-43.9h-58.9v165.1c6.5,0.2,49.7,0.2,58.7,0.2c45.3,0,72.6-10.8,72.6-45.9
            C671.8,202.7,656.1,188.8,632.6,185.9"/>
        <g>
            <polygon class="st0" points="133.2,106.2 133.2,175.2 133.2,271.5 165.9,271.5 165.9,106.2            "/>
            <path class="st0" d="M88.1,241.2l-53.7-135H0.5v165.3c6.8,0,12.3-5.5,12.3-12.3V140l52.6,131.5H89l30.7-78.3
                c5.5-13.9,7-29.1,4.3-43.8L88.1,241.2z"/>
        </g>
    </g>
    <g>
        <path class="st0" d="M461.9,74.6c-2.5,0-4.5,2-4.5,4.5c0,2.5,2,4.5,4.5,4.5c2.5,0,4.5-2,4.5-4.5C466.4,76.6,464.4,74.6,461.9,74.6
            z"/>
        <path class="st0" d="M505.2,91.2h-8.4h-76.9v-9.9c0-2.3,0.6-4.7,1.8-6.7c1.4-2.2,3.7-4.4,7.5-4.3c6.2,0.1,25.7,0,32.5,0
            c2.4,0,4.9,0.6,6.8,2c2.2,1.6,4.4,4.2,4.2,8.4h32.4V91.2h33.9c-10.2-15.7-23.7-19.7-34.4-20.6c-0.6-2.7-5-13.1-18.9-20.4
            c-0.4-3.9-1.4-7.8-3.2-11.8C476.5,25,466.1,15.7,453,9.5c-1.8-0.9-3.6-2.2-6.6-2c5.7,4.8,10.3,9.4,11.1,16.6
            c-5.8-4.1-10.9-9-17.2-12.3c-6.3-3.3-12.8-5.7-20.1-3.9c8.6,1.1,15.3,5.5,20.6,12.2c-8.7-4.1-17.7-7.3-27.2-8.7
            c-9.5-1.3-21.9,1.2-27.7,5.3c19.3-4.1,40-0.1,46.1,8.8c-29.6-8.1-48.6-7.1-58.1,3.1c14.9-6.9,30.1-6,41.9-0.9
            c-4.8,0.2-9.6,0.9-14.2,2.1c-1.9,0.5-16.6,4.8-18.9,6.8c12.4-1.6,28.1-3.5,33.2,1.5c-7.1,0.5-14.1-0.1-21.1,1.4
            c-7,1.5-13.5,3.7-18,9.7c7.4-4.6,15.3-5.4,23.6-3.6c-9.4,2.3-18.3,5.6-26.6,10.6c-8.2,5-16.2,14.8-18.1,21.7
            c12.4-15.4,30.8-25.5,41.2-22.4c-28,12.5-42,25.3-42.9,39.2c9-18.5,26-27.9,41.3-28.9c-9.4,5.4-17.3,10.9-23.4,18.7
            c-6.2,7.9-9.8,16.9-10.6,26.9c8-19.1,16.3-29.4,26.6-32.3c-8.6,13.2-17.3,27.2-14.1,35.4c7.4-23.2,15.6-31.2,26-33.5
            c-6.4,8.4-10.9,17.1-12.6,28.3c3.2-3.7,8.8-10,13.6-11.1c0,0,1.9,4.2,2.3,8.4c-9.7,1.3-18.3,7.1-23.1,15.8L271.9,304.5h10.6
            c12.9,0,27-6.8,32.8-18.3c0,0,17.1-48,17.1-48c7.4,3.7,16,7.4,26.6,10.9l31.3,31.3l17.6,17.6l-7.1,0c-3.5,0.1-6.2,3-6.2,6.5H500
            c0-3.3-3.1-6-6.2-6.5l-38.8,0l-28.1-26.6l-0.1-23.5c87.7-57.8,62.6-137.2,62.6-141.6C489.4,97.1,495.9,91.2,505.2,91.2z
             M445.1,298h-27.3l-27.5-26.6v-18c3.4,0,6.8,0,9.9-0.3L445.1,298z"/>
    </g>
    <path class="st0" d="M305.7,408.5c-2.3,3.3-5.6,6.1-9.7,8.3c-4.1,2.3-9.1,3.4-14.9,3.4c-5.9,0-11.3-1.4-16.3-4.2
        c-4.9-2.8-8.8-6.7-11.7-11.6c-2.9-5-4.3-10.6-4.3-17c0-6.4,1.5-12.2,4.4-17.2c2.9-5.1,6.9-9,11.9-11.9s10.4-4.3,16.3-4.3
        c5.5,0,10.3,1.1,14.4,3.3c4.1,2.2,7.3,4.9,9.7,8.2c2.4,3.2,4,6.5,4.8,9.9l-0.2,0.1c-0.8,0.3-1.6,0.5-2.4,0.5c-1.2,0-2.4-0.3-3.5-1
        c-1.1-0.7-2-1.6-2.7-2.8c-1.9-3.2-4.4-5.9-7.7-8.2c-3.3-2.3-7.5-3.4-12.6-3.4c-4.6,0-8.8,1.1-12.6,3.4c-3.9,2.3-6.9,5.4-9.2,9.4
        c-2.3,4-3.4,8.6-3.4,13.6s1.1,9.6,3.3,13.7c2.2,4.1,5.2,7.3,9.1,9.6c3.9,2.3,8.2,3.5,13,3.5c6.8,0,11.9-1.8,15.4-5.4
        c3.5-3.6,5.9-7.6,7.3-11.9l6.6,2.4C309.6,402,308,405.2,305.7,408.5z"/>
    <path class="st0" d="M399.2,358.5c4.9,2.9,8.8,6.9,11.7,11.9c2.8,5,4.3,10.5,4.3,16.6c0,6.1-1.4,11.7-4.3,16.8
        c-2.8,5.1-6.8,9.1-11.7,12.1c-5,2.9-10.6,4.4-16.7,4.4c-6.1,0-11.6-1.5-16.5-4.4c-4.9-2.9-8.8-6.9-11.7-11.9
        c-2.8-5-4.3-10.5-4.3-16.6c0-6.1,1.4-11.7,4.3-16.8c2.8-5.1,6.8-9.1,11.7-12.1c5-2.9,10.6-4.4,16.7-4.4
        C388.7,354.1,394.2,355.6,399.2,358.5z M395.7,410.3c3.9-2.4,6.9-5.6,9.1-9.6c2.2-4,3.3-8.4,3.3-13.3c0-4.8-1.1-9.3-3.3-13.5
        c-2.2-4.1-5.3-7.4-9.2-9.9c-3.9-2.4-8.3-3.7-13.2-3.7c-4.9,0-9.3,1.2-13.1,3.6c-3.9,2.4-6.9,5.6-9,9.6c-2.2,4.1-3.2,8.5-3.2,13.3
        c0,4.9,1.1,9.4,3.3,13.5c2.2,4.1,5.2,7.4,9.1,9.8c3.9,2.4,8.3,3.6,13.3,3.6C387.5,413.9,391.9,412.7,395.7,410.3z"/>
    <path class="st0" d="M467,384.4h31.2c0,1.8-0.6,3.3-1.9,4.5c-1.3,1.2-2.8,1.8-4.5,1.8H467v29.5h-6.9v-66.1h41v6.5H467V384.4z"/>
    <path class="st0" d="M550.3,384.4h31.2c0,1.8-0.6,3.3-1.9,4.5c-1.3,1.2-2.8,1.8-4.5,1.8h-24.8v29.5h-6.9v-66.1h41v6.5h-34.1V384.4z
        "/>
    <path class="st0" d="M663.4,420.3h-41.7v-66.1h41.4v6.4h-34.5v22.9h27.3c0,1.8-0.6,3.3-1.8,4.5c-1.2,1.3-2.7,1.9-4.5,1.9h-21v23.9
        h34.8V420.3z"/>
    <path class="st0" d="M744.5,420.3h-41.7v-66.1h41.4v6.4h-34.5v22.9H737c0,1.8-0.6,3.3-1.8,4.5c-1.2,1.3-2.7,1.9-4.5,1.9h-21v23.9
        h34.8V420.3z"/>
</g>
</svg>
