<?xml version="1.0" encoding="utf-8"?>
<!-- Generator: Adobe Illustrator 23.0.3, SVG Export Plug-In . SVG Version: 6.00 Build 0)  -->
<svg version="1.1" id="Ebene_1" xmlns="http://www.w3.org/2000/svg" xmlns:xlink="http://www.w3.org/1999/xlink" x="0px" y="0px"
     viewBox="0 0 566.9 637.8" style="enable-background:new 0 0 566.9 637.8;" xml:space="preserve">
<style type="text/css">
    .st0{fill:#FFFFFF;}
</style>
<g>
    <path class="st0" d="M402.8,147.8c-5.2,0-9.5,4.2-9.5,9.5c0,5.2,4.2,9.5,9.5,9.5c5.2,0,9.5-4.3,9.5-9.5
        C412.3,152.1,408.1,147.8,402.8,147.8z"/>
    <path class="st0" d="M494.6,183.2h-17.8H313.6v-21c0-5,1.2-10,3.8-14.2c2.9-4.7,7.8-9.3,15.9-9.2c13.2,0.2,54.5,0.1,69,0
        c5.2,0,10.3,1.3,14.5,4.3c4.7,3.3,9.2,8.8,8.9,17.9h68.8V183.2h72c-21.7-33.4-50.2-41.8-73-43.7c-1.2-5.7-10.7-27.8-40.1-43.4
        c-0.8-8.2-3-16.6-6.9-25.1c-12.9-28.5-34.9-48-62.7-61.3c-3.8-1.8-7.6-4.6-14-4.3c12,10.3,21.9,20,23.6,35.2
        c-12.3-8.8-23.1-19.1-36.5-26.1c-13.4-7-27.1-12.1-42.6-8.2c18.3,2.4,32.4,11.6,43.7,25.8c-18.5-8.8-37.6-15.6-57.8-18.4
        c-20.1-2.8-46.5,2.5-58.9,11.3c41-8.7,84.8-0.3,97.8,18.7c-62.8-17.2-103.1-15-123.2,6.6c31.6-14.5,63.8-12.8,88.9-1.9
        c-10.2,0.4-20.3,2-30.2,4.4c-4.1,1-35.3,10.2-40.1,14.5c26.3-3.3,59.5-7.5,70.5,3.2c-15,1-30-0.1-44.7,2.9
        c-14.8,3.1-28.6,7.8-38.1,20.7c15.7-9.8,32.4-11.5,50.1-7.7c-19.9,5-38.9,11.8-56.4,22.4c-17.3,10.6-34.3,31.4-38.4,46.1
        c26.2-32.7,65.4-54,87.5-47.5c-59.4,26.5-89.2,53.8-91.1,83.2c19.1-39.3,55.2-59.3,87.6-61.4c-20,11.5-36.8,23.2-49.6,39.6
        c-13.1,16.8-20.8,35.8-22.6,57c16.9-40.6,34.7-62.3,56.4-68.6c-18.3,28-36.7,57.7-30,75.1c15.7-49.3,33.1-66.2,55.2-71.1
        c-13.5,17.9-23.2,36.3-26.8,60.1c6.8-7.8,18.6-21.3,28.9-23.5c0,0,4.1,9,4.9,17.9c-20.6,2.7-38.9,15-49.1,33.5L-0.4,635.8h22.5
        c27.5,0,57.3-14.3,69.6-38.9c0-0.1,36.3-101.7,36.3-101.7c15.8,7.9,34,15.8,56.4,23l66.5,66.5l37.3,37.4l-15.1,0
        c-7.4,0.3-13.2,6.4-13.2,13.8h223.7c0-6.9-6.5-12.8-13.2-13.8l-82.3,0l-59.5-56.4l-0.3-49.9c186.1-122.6,132.9-291,132.9-300.4
        C461.2,195.6,474.9,183.2,494.6,183.2z M367.1,622h-57.9l-58.3-56.4v-38.2c7.2,0,14.5,0,21.1-0.7L367.1,622z"/>
</g>
</svg>
