<svg xmlns="http://www.w3.org/2000/svg" xmlns:xlink="http://www.w3.org/1999/xlink" width="624" height="622" viewBox="0 0 624 622">
    <defs>
        <path id="a" d="M0 623h623.724V.425H0z"/>
    </defs>
    <g fill="none" fill-rule="evenodd" opacity=".151">
        <path fill="#FEFEFE" d="M517 105h105V0H517v105zm2.412-2.413h100.174V2.413H519.412v100.174zM107.413 412.587h100.174V312.413H107.413v100.174zM105 415h105V310H105v105zM313.413 206.587h100.174V106.413H313.413v100.174zM311 209h105V104H311v105z"/>
        <path fill="#FEFEFE" d="M416.413 308.587h100.174V208.413H416.413v100.174zM414 311h105V206H414v105zM209.413 308.587h100.174V208.413H209.413v100.174zM207 311h105V206H207v105z"/>
        <path fill="#FEFEFE" d="M519.413 206.587h100.174V106.413H519.413v100.174zM517 209h105V104H517v105z"/>
        <path fill="#FEFEFE" d="M518 105v106l106-106H518zm2.397 2.398h97.816l-97.816 97.815v-97.815zM107.413 514.587h100.174V414.413H107.413v100.174zM105 517h105V412H105v105z"/>
        <path fill="#FEFEFE" d="M108.397 414.397v97.817l97.817-97.817h-97.817zM106 518V412h106L106 518zM416.413 206.587h100.174V106.413H416.413v100.174zM414 209h105V104H414v105z"/>
        <path fill="#FEFEFE" d="M515.603 107.397h-97.817l97.817 97.817v-97.817zM412 105h106v106L412 105zM209.413 514.587h100.174V414.413H209.413v100.174zM207 517h105V412H207v105z"/>
        <path fill="#FEFEFE" d="M309.603 414.397h-97.817l97.817 97.817v-97.817zM206 412h106v106L206 412zM311 105h105V0H311v105zm2.413-2.413h100.174V2.413H313.413v100.174z"/>
        <path fill="#FEFEFE" d="M309 0l106 106V0H309zm5.786 2.397h97.817v97.816L314.786 2.397zM107.413 206.587h100.174V106.413H107.413v100.174zM105 209h105V104H105v105z"/>
        <path fill="#FEFEFE" d="M207.603 107.397h-97.817l97.817 97.817v-97.817zM104 105h106v106L104 105z"/>
        <path fill="#FEFEFE" d="M107.413 308.587h100.174V208.413H107.413v100.174zM105 311h105V206H105v105z"/>
        <path fill="#FEFEFE" d="M207.603 210.786l-97.817 97.817h97.817v-97.817zM104 311l106-106v106H104z"/>
        <path fill="#FEFEFE" d="M209.413 206.587h100.174V106.413H209.413v100.174zM207 209h105V104H207v105z"/>
        <path fill="#FEFEFE" d="M210.397 108.786v97.817h97.817l-97.817-97.817zM208 209V103l106 106H208zM416.413 617.587h100.174V517.413H416.413v100.174zM414 620h105V515H414v105z"/>
        <path fill="#FEFEFE" d="M414 516v106l106-106H414zm2.397 2.397h97.816l-97.816 97.817v-97.817zM519.413 308.587h100.174V208.413H519.413v100.174zM517 311h105V206H517v105z"/>
        <g>
            <path fill="#FEFEFE" d="M619.59 259.319c0-27.75-22.555-50.325-50.28-50.325-27.722 0-50.277 22.576-50.277 50.325 0 27.749 22.555 50.324 50.278 50.324 27.724 0 50.279-22.575 50.279-50.324m-102.98 0c0-29.086 23.641-52.75 52.7-52.75 29.061 0 52.702 23.664 52.702 52.75s-23.64 52.749-52.701 52.749c-29.06 0-52.7-23.663-52.7-52.75"/>
            <mask id="b" fill="#fff">
                <use xlink:href="#a"/>
            </mask>
            <path fill="#FEFEFE" d="M107.115 103.498h100.557V2.85H107.115v100.648zm-2.422 2.424h105.4V.425h-105.4v105.497z" mask="url(#b)"/>
            <path fill="#FEFEFE" d="M207.672 53.173c0-27.749-22.556-50.324-50.28-50.324-27.722 0-50.277 22.575-50.277 50.324 0 27.75 22.555 50.325 50.278 50.325s50.279-22.576 50.279-50.325m-102.98 0c0-29.085 23.641-52.749 52.7-52.749 29.061 0 52.702 23.664 52.702 52.75 0 29.085-23.64 52.748-52.701 52.748-29.06 0-52.7-23.663-52.7-52.749M107.115 618.862h100.557V518.214H107.115v100.648zm-2.422 2.424h105.4V515.79h-105.4v105.497z" mask="url(#b)"/>
            <path fill="#FEFEFE" d="M207.672 568.538c0-27.75-22.556-50.325-50.28-50.325-27.722 0-50.277 22.576-50.277 50.325 0 27.749 22.555 50.325 50.278 50.325s50.279-22.576 50.279-50.325m-102.98 0c0-29.086 23.641-52.75 52.7-52.75 29.061 0 52.702 23.664 52.702 52.75s-23.64 52.749-52.701 52.749c-29.06 0-52.7-23.663-52.7-52.75M313.073 309.643H413.63V208.995H313.073v100.648zm-2.422 2.424h105.402V206.571H310.651v105.496z" mask="url(#b)"/>
            <path fill="#FEFEFE" d="M413.632 259.319c0-27.75-22.556-50.325-50.28-50.325-27.723 0-50.279 22.576-50.279 50.325 0 27.749 22.556 50.324 50.28 50.324 27.723 0 50.279-22.575 50.279-50.324m-102.98 0c0-29.086 23.64-52.75 52.7-52.75 29.061 0 52.702 23.664 52.702 52.75s-23.64 52.749-52.702 52.749c-29.06 0-52.7-23.663-52.7-52.75M313.073 618.862H413.63V518.214H313.073v100.648zm-2.422 2.424h105.402V515.79H310.651v105.497z" mask="url(#b)"/>
            <path fill="#FEFEFE" d="M413.632 568.538c0-27.75-22.556-50.325-50.28-50.325-27.723 0-50.279 22.576-50.279 50.325 0 27.749 22.556 50.325 50.278 50.325 27.725 0 50.28-22.576 50.28-50.325m-102.98 0c0-29.086 23.64-52.75 52.7-52.75 29.06 0 52.702 23.664 52.702 52.75s-23.641 52.749-52.702 52.749c-29.06 0-52.7-23.663-52.7-52.75M416.053 412.717H516.61v-100.65H416.053v100.65zm-2.422 2.424h105.401V309.643h-105.4v105.498z" mask="url(#b)"/>
            <path fill="#FEFEFE" d="M516.61 362.391c0-27.749-22.555-50.324-50.279-50.324-27.722 0-50.278 22.575-50.278 50.324 0 27.75 22.556 50.326 50.278 50.326 27.724 0 50.28-22.575 50.28-50.326m-102.98 0c0-29.086 23.641-52.749 52.7-52.749 29.061 0 52.702 23.663 52.702 52.75 0 29.085-23.64 52.75-52.702 52.75-29.059 0-52.7-23.665-52.7-52.75" mask="url(#b)"/>
            <path fill="#FEFEFE" d="M490.866 362.391c0-13.54-11.006-24.556-24.534-24.556-13.528 0-24.534 11.016-24.534 24.556 0 13.542 11.006 24.558 24.534 24.558 13.528 0 24.534-11.016 24.534-24.558m-51.49 0c0-14.877 12.092-26.98 26.956-26.98 14.864 0 26.956 12.103 26.956 26.98s-12.092 26.982-26.956 26.982c-14.864 0-26.956-12.105-26.956-26.982M210.094 412.717H310.65v-100.65H210.094v100.65zm-2.422 2.424h105.4V309.643h-105.4v105.498z" mask="url(#b)"/>
            <path fill="#FEFEFE" d="M310.651 362.391c0-27.749-22.555-50.324-50.28-50.324-27.722 0-50.277 22.575-50.277 50.324 0 27.75 22.555 50.326 50.278 50.326 27.724 0 50.28-22.575 50.28-50.326m-102.98 0c0-29.086 23.64-52.749 52.7-52.749 29.06 0 52.701 23.663 52.701 52.75 0 29.085-23.64 52.75-52.701 52.75-29.06 0-52.7-23.665-52.7-52.75" mask="url(#b)"/>
            <path fill="#FEFEFE" d="M284.906 362.391c0-13.54-11.006-24.556-24.534-24.556-13.528 0-24.534 11.016-24.534 24.556 0 13.542 11.006 24.558 24.534 24.558 13.528 0 24.534-11.016 24.534-24.558m-51.49 0c0-14.877 12.093-26.98 26.956-26.98 14.865 0 26.956 12.103 26.956 26.98s-12.091 26.982-26.956 26.982c-14.863 0-26.956-12.105-26.956-26.982M519.032 412.717H619.59v-100.65H519.032v100.65zm-2.422 2.424h105.401V309.643h-105.4v105.498z" mask="url(#b)"/>
            <path fill="#FEFEFE" d="M619.59 312.074c-55.157.647-99.903 45.436-100.55 100.643h100.55V312.074zM516.61 415.141v-1.212c0-57.503 46.74-104.286 104.19-104.286h1.212V415.14H516.61zM313.073 515.79H413.63V415.14H313.073v100.648zm-2.422 2.424h105.402V412.717H310.651v105.497z" mask="url(#b)"/>
            <path fill="#FEFEFE" d="M413.632 415.147c-55.157.647-99.905 45.435-100.552 100.642h100.552V415.147zm-102.98 103.066v-1.212c0-57.502 46.74-104.286 104.19-104.286h1.212v105.498H310.65zM519.032 515.79H619.59V415.14H519.032v100.648zm-2.422 2.424h105.401V412.717h-105.4v105.497z" mask="url(#b)"/>
            <path fill="#FEFEFE" d="M619.59 415.14H519.04c.647 55.208 45.393 99.995 100.55 100.642V415.141zm-102.98-1.211v-1.212h105.402v105.496H620.8c-57.45 0-104.19-46.782-104.19-104.284zM416.053 103.498H516.61V2.85H416.053v100.648zm-2.422 2.424h105.401V.425h-105.4v105.497z" mask="url(#b)"/>
            <path fill="#FEFEFE" d="M516.604 2.856c-55.149.652-99.891 45.436-100.543 100.634 55.148-.652 99.891-45.435 100.543-100.634zM413.632 105.922v-1.213C413.632 47.207 460.37.425 517.822.425h1.21v1.212c0 57.504-46.739 104.285-104.19 104.285h-1.21zM210.094 103.498H310.65V2.85H210.094v100.648zm-2.422 2.424h105.4V.425h-105.4v105.497z" mask="url(#b)"/>
            <path fill="#FEFEFE" d="M310.644 103.49C309.993 48.293 265.25 3.51 210.101 2.858c.652 55.198 45.395 99.982 100.543 100.634M207.672 1.637V.425h1.211c57.45 0 104.19 46.781 104.19 104.285v1.212h-1.21c-57.452 0-104.19-46.782-104.19-104.285M313.073 412.716H413.63V312.067H313.073v100.649zm-2.422 2.424h105.402V309.643H310.651V415.14z" mask="url(#b)"/>
            <path fill="#FEFEFE" d="M413.624 412.709c-.651-55.199-45.394-99.982-100.543-100.634.651 55.198 45.394 99.981 100.543 100.634M310.651 310.855v-1.212h1.211c57.45 0 104.192 46.781 104.192 104.285v1.212h-1.211c-57.452 0-104.192-46.782-104.192-104.285M519.032 618.862H619.59V518.214H519.032v100.648zm-2.422 2.424h105.401V515.79h-105.4v105.497z" mask="url(#b)"/>
            <path fill="#FEFEFE" d="M619.583 518.22c-55.149.653-99.891 45.436-100.543 100.635 55.149-.653 99.891-45.436 100.543-100.634zM516.61 621.287v-1.212c0-57.503 46.738-104.285 104.19-104.285h1.211v1.212c0 57.504-46.74 104.285-104.19 104.285h-1.211zM210.094 618.862H310.65V518.214H210.094v100.648zm-2.422 2.424h105.4V515.79h-105.4v105.497z" mask="url(#b)"/>
            <path fill="#FEFEFE" d="M310.644 518.22c-55.148.653-99.891 45.436-100.543 100.635 55.149-.653 99.892-45.436 100.543-100.634zM207.672 621.287v-1.212c0-57.503 46.739-104.285 104.19-104.285h1.211v1.212c0 57.504-46.74 104.285-104.19 104.285h-1.21zM416.053 515.79H516.61V415.14H416.053v100.648zm-2.422 2.424h105.401V412.717h-105.4v105.497z" mask="url(#b)"/>
            <path fill="#FEFEFE" d="M416.053 415.148v100.641h100.55c-.646-55.207-45.393-99.994-100.55-100.641zm-2.421 103.065V412.717h1.21c57.451 0 104.19 46.782 104.19 104.284v1.212h-105.4z" mask="url(#b)"/>
            <path fill="#FEFEFE" d="M416.053 466.691v49.099h49.054c-.636-26.79-22.288-48.463-49.054-49.099zm-2.421 51.523v-53.961h1.21c29.06 0 52.702 23.663 52.702 52.749v1.212h-53.912zM4.134 309.644h100.559v-100.65H4.134v100.65zm-2.422 2.424h105.403V206.571H1.712v105.497zM4.134 618.863h100.557v-100.65H4.134v100.65zm-2.422 2.424h105.401V515.79H1.713v105.498z" mask="url(#b)"/>
            <path fill="#FEFEFE" d="M104.692 519.927L5.847 618.863h98.845v-98.936zM0 621.287l107.113-107.211v107.211H0z" mask="url(#b)"/>
            <path fill="#FEFEFE" d="M4.134 515.79h100.557V415.14H4.134v100.648zm-2.422 2.424h105.401V412.717H1.713v105.497z" mask="url(#b)"/>
            <path fill="#FEFEFE" d="M104.692 465.465c0-27.749-22.556-50.325-50.28-50.325-27.722 0-50.278 22.576-50.278 50.325 0 27.75 22.556 50.325 50.278 50.325 27.724 0 50.28-22.576 50.28-50.325m-102.98 0c0-29.086 23.64-52.749 52.7-52.749 29.061 0 52.701 23.663 52.701 52.75 0 29.085-23.64 52.748-52.7 52.748-29.06 0-52.7-23.663-52.7-52.749M4.134 206.57h100.557V105.923H4.134v100.649zm-2.422 2.425h105.401V103.498H1.713v105.497z" mask="url(#b)"/>
            <path fill="#FEFEFE" d="M104.692 156.246c0-27.749-22.556-50.325-50.28-50.325-27.722 0-50.278 22.576-50.278 50.325 0 27.749 22.556 50.325 50.278 50.325 27.724 0 50.28-22.576 50.28-50.325m-102.98 0c0-29.086 23.64-52.749 52.7-52.749 29.061 0 52.701 23.663 52.701 52.75 0 29.085-23.64 52.748-52.7 52.748-29.06 0-52.7-23.663-52.7-52.749" mask="url(#b)"/>
            <path fill="#FEFEFE" d="M78.947 156.246c0-13.54-11.007-24.556-24.534-24.556-13.528 0-24.534 11.016-24.534 24.556 0 13.54 11.006 24.556 24.534 24.556 13.527 0 24.534-11.016 24.534-24.556m-51.49 0c0-14.877 12.092-26.98 26.956-26.98 14.864 0 26.956 12.103 26.956 26.98s-12.092 26.98-26.956 26.98c-14.864 0-26.956-12.103-26.956-26.98M4.134 103.498h100.559V2.85H4.134v100.648zm-2.422 2.424h105.403V.425H1.712v105.497z" mask="url(#b)"/>
            <path fill="#FEFEFE" d="M104.685 103.49C104.033 48.293 59.29 3.51 4.142 2.858c.651 55.198 45.394 99.982 100.543 100.634M1.713 1.637V.425h1.21c57.451 0 104.19 46.781 104.19 104.285v1.212h-1.21C48.45 105.922 1.713 59.14 1.713 1.637M4.134 412.717h100.557V312.068H4.134v100.649zm-2.422 2.424h105.401V309.644H1.713v105.497z" mask="url(#b)"/>
            <path fill="#FEFEFE" d="M104.685 312.075c-55.149.652-99.892 45.436-100.543 100.634 55.148-.652 99.891-45.435 100.543-100.634zM1.713 415.141v-1.212c0-57.503 46.738-104.285 104.19-104.285h1.21v1.212c0 57.504-46.739 104.285-104.19 104.285h-1.21z" mask="url(#b)"/>
        </g>
    </g>
</svg>
