<svg xmlns="http://www.w3.org/2000/svg" xmlns:xlink="http://www.w3.org/1999/xlink" width="1440" height="763" viewBox="0 0 1440 763">
    <defs>
        <path id="a" d="M0 1139.185h760.696V.218H0z"/>
        <path id="c" d="M0 1139.185h760.696V.218H0z"/>
    </defs>
    <g fill="none" fill-rule="evenodd" opacity=".4">
        <g opacity=".302">
            <path fill="#FEFEFE" d="M759.016 4.855v74.16h74.132V4.855h-74.132zm-1.786-1.787V80.8h77.703V3.068H757.23zM455.363 230.891v74.16h74.131v-74.16h-74.131zm-1.786-1.786v77.731h77.703v-77.731h-77.703zM607.7 80.54v74.16h74.132V80.54H607.7zm-1.785-1.785v77.732h77.702V78.755h-77.702z"/>
            <path fill="#FEFEFE" d="M683.358 153.159v74.159h74.132v-74.16h-74.132zm-1.785-1.786v77.732h77.702v-77.732h-77.702zM533.065 153.159v74.159h74.132v-74.16h-74.132zm-1.785-1.786v77.732h77.702v-77.732H531.28zM683.358 535.681v74.16h74.132v-74.16h-74.132zm-1.785-1.786v77.732h77.702v-77.732h-77.702zM455.363 535.681v74.16h74.131v-74.16h-74.131zm-1.786-1.786v77.732h77.703v-77.732h-77.703z"/>
            <path fill="#FEFEFE" d="M759.016 608.3v74.159h74.132v-74.16h-74.132zm-1.786-1.787v77.732h77.703v-77.732H757.23zM533.065 457.95v74.16h74.132v-74.16h-74.132zm-1.785-1.786v77.731h77.702v-77.731H531.28zM759.016 80.54v74.16h74.132V80.54h-74.132zm-1.786-1.785v77.732h77.703V78.755H757.23z"/>
            <path fill="#FEFEFE" d="M836.466 78.243h-78.725v79.778l78.725-79.778zm-4.297 1.804l-72.648 73.619v-73.62h72.648zM455.363 306.577v74.16h74.131v-74.16h-74.131zm-1.786-1.786v77.732h77.703V304.79h-77.703z"/>
            <path fill="#FEFEFE" d="M455.869 307.106v73.62l72.648-73.62h-72.648zm-1.78 77.974v-79.778h78.724l-78.725 79.778zM683.358 80.54v74.16h74.132V80.54h-74.132zm-1.785-1.785v77.732h77.702V78.755h-77.702z"/>
            <path fill="#FEFEFE" d="M756.983 80.047h-72.648l72.648 73.62v-73.62zm-76.944-1.804h78.725v79.778l-78.725-79.778zM533.065 306.577v74.16h74.132v-74.16h-74.132zm-1.785-1.786v77.732h77.702V304.79H531.28z"/>
            <path fill="#FEFEFE" d="M606.69 307.106h-72.648l72.648 73.62v-73.62zm-76.944-1.804h78.725v79.778l-78.725-79.778zM683.358 683.986v74.16h74.132v-74.16h-74.132zm-1.785-1.786v77.732h77.702V682.2h-77.702z"/>
            <path fill="#FEFEFE" d="M683.106 682.711v79.778l78.725-79.778h-78.725zm74.428 1.804l-72.648 73.62v-73.62h72.648z"/>
            <path fill="#FEFEFE" d="M607.7 683.986v74.16h74.132v-74.16H607.7zm-1.785-1.786v77.732h77.702V682.2h-77.702z"/>
            <path fill="#FEFEFE" d="M684.129 682.711h-78.725l78.725 79.778V682.71zm-1.78 1.804v73.62l-72.649-73.62h72.649z"/>
            <path fill="#FEFEFE" d="M607.7 608.3v74.159h74.132v-74.16H607.7zm-1.785-1.787v77.732h77.702v-77.732h-77.702z"/>
            <path fill="#FEFEFE" d="M682.348 609.334l-72.648 73.62h72.648v-73.62zm-76.944 75.423l78.725-79.778v79.778h-78.725z"/>
            <path fill="#FEFEFE" d="M683.358 608.3v74.159h74.132v-74.16h-74.132zm-1.785-1.787v77.732h77.702v-77.732h-77.702z"/>
            <path fill="#FEFEFE" d="M684.887 609.334v73.62h72.647l-72.647-73.62zm-1.78 75.423v-79.778l78.724 79.778h-78.725zM607.7 4.855v74.16h74.132V4.855H607.7zm-1.785-1.787V80.8h77.702V3.068h-77.702z"/>
            <path fill="#FEFEFE" d="M682.348 5.384H609.7l72.648 73.619V5.384zM605.404 3.58h78.725v79.777L605.404 3.58zM455.363 80.54v74.16h74.131V80.54h-74.131zm-1.786-1.785v77.732h77.703V78.755h-77.703z"/>
            <path fill="#FEFEFE" d="M528.988 80.047H456.34l72.648 73.62v-73.62zm-76.945-1.804h78.725v79.778l-78.725-79.778z"/>
            <path fill="#FEFEFE" d="M455.363 153.159v74.159h74.131v-74.16h-74.131zm-1.786-1.786v77.732h77.703v-77.732h-77.703z"/>
            <path fill="#FEFEFE" d="M528.988 156.24l-72.648 73.618h72.648v-73.619zm-76.945 75.422l78.725-79.778v79.778h-78.725zM533.065 80.54v74.16h74.132V80.54h-74.132zm-1.785-1.785v77.732h77.702V78.755H531.28z"/>
            <path fill="#FEFEFE" d="M531.526 80.553v73.619h72.649l-72.649-73.62zm-1.78 75.422V76.198l78.725 79.777h-78.725zM683.358 382.263v74.16h74.132v-74.16h-74.132zm-1.785-1.786v77.732h77.702v-77.732h-77.702z"/>
            <path fill="#FEFEFE" d="M684.887 381.77v73.619l72.647-73.619h-72.647zm-1.78 77.973v-79.777h78.724l-78.725 79.777zM533.065 535.681v74.16h74.132v-74.16h-74.132zm-1.785-1.786v77.732h77.702v-77.732H531.28z"/>
            <path fill="#FEFEFE" d="M531.526 533.143v73.619l72.649-73.62h-72.649zm-1.78 77.973v-79.778h78.725l-78.725 79.778zM759.016 153.159v74.159h74.132v-74.16h-74.132zm-1.786-1.786v77.732h77.703v-77.732H757.23z"/>
            <g transform="rotate(90 418.489 419)">
                <path fill="#FEFEFE" d="M191.247 3.255c-20.363 0-36.93 16.568-36.93 36.932 0 20.365 16.567 36.933 36.93 36.933s36.93-16.568 36.93-36.933c0-20.364-16.567-36.932-36.93-36.932m0 75.645c-21.345 0-38.71-17.366-38.71-38.713 0-21.346 17.365-38.711 38.71-38.711 21.345 0 38.71 17.365 38.71 38.711 0 21.347-17.365 38.713-38.71 38.713"/>
                <mask id="b" fill="#fff">
                    <use xlink:href="#a"/>
                </mask>
                <path fill="#FEFEFE" d="M3.037 379.702h73.861v-73.866H3.038v73.866zm-1.78 1.78h77.42v-77.425H1.256v77.424z" mask="url(#b)"/>
                <path fill="#FEFEFE" d="M39.967 305.836c-20.363 0-36.93 16.568-36.93 36.933 0 20.364 16.567 36.933 36.93 36.933s36.93-16.57 36.93-36.933c0-20.365-16.567-36.933-36.93-36.933m0 75.645c-21.345 0-38.71-17.366-38.71-38.712 0-21.347 17.365-38.713 38.71-38.713 21.345 0 38.71 17.366 38.71 38.713 0 21.346-17.365 38.712-38.71 38.712M381.238 379.702h73.86v-73.866h-73.86v73.866zm-1.78 1.78h77.42v-77.425h-77.42v77.424z" mask="url(#b)"/>
                <path fill="#FEFEFE" d="M418.168 305.836c-20.363 0-36.93 16.568-36.93 36.933 0 20.364 16.567 36.933 36.93 36.933s36.93-16.57 36.93-36.933c0-20.365-16.567-36.933-36.93-36.933m0 75.645c-21.345 0-38.71-17.366-38.71-38.712 0-21.347 17.365-38.713 38.71-38.713 21.345 0 38.71 17.366 38.71 38.713 0 21.346-17.365 38.712-38.71 38.712M154.317 228.412h73.86v-73.867h-73.86v73.867zm-1.78 1.778h77.42v-77.424h-77.42v77.424z" mask="url(#b)"/>
                <path fill="#FEFEFE" d="M191.247 154.545c-20.363 0-36.93 16.568-36.93 36.933s16.567 36.933 36.93 36.933 36.93-16.568 36.93-36.933-16.567-36.933-36.93-36.933m0 75.646c-21.345 0-38.71-17.367-38.71-38.713 0-21.347 17.365-38.713 38.71-38.713 21.345 0 38.71 17.366 38.71 38.713 0 21.346-17.365 38.713-38.71 38.713M683.798 304.056h73.861V230.19H683.8v73.866zm-1.78 1.78h77.42v-77.424h-77.42v77.424z" mask="url(#b)"/>
                <path fill="#FEFEFE" d="M720.728 230.19c-20.362 0-36.93 16.57-36.93 36.934 0 20.364 16.568 36.933 36.93 36.933 20.363 0 36.931-16.57 36.931-36.933 0-20.364-16.568-36.933-36.93-36.933m0 75.645c-21.345 0-38.71-17.366-38.71-38.712 0-21.346 17.365-38.713 38.71-38.713 21.344 0 38.71 17.367 38.71 38.713s-17.366 38.712-38.71 38.712" mask="url(#b)"/>
                <path fill="#FEFEFE" d="M608.158 304.056h73.86V230.19h-73.86v73.866zm-1.779 1.78h77.42v-77.424h-77.42v77.424z" mask="url(#b)"/>
                <path fill="#FEFEFE" d="M645.088 230.19c-20.362 0-36.93 16.57-36.93 36.934 0 20.364 16.568 36.933 36.93 36.933 20.364 0 36.93-16.57 36.93-36.933 0-20.364-16.566-36.933-36.93-36.933m0 75.645c-21.344 0-38.71-17.366-38.71-38.712 0-21.346 17.366-38.713 38.71-38.713 21.346 0 38.71 17.367 38.71 38.713s-17.364 38.712-38.71 38.712M381.238 228.412h73.86v-73.867h-73.86v73.867zm-1.78 1.778h77.42v-77.424h-77.42v77.424z" mask="url(#b)"/>
                <path fill="#FEFEFE" d="M418.168 154.545c-20.363 0-36.93 16.568-36.93 36.933s16.567 36.933 36.93 36.933 36.93-16.568 36.93-36.933-16.567-36.933-36.93-36.933m0 75.646c-21.345 0-38.71-17.366-38.71-38.713 0-21.346 17.365-38.713 38.71-38.713 21.345 0 38.71 17.367 38.71 38.713 0 21.347-17.365 38.713-38.71 38.713M532.517 77.12h73.862V3.255h-73.862V77.12zm-1.779 1.78h77.42V1.476h-77.42V78.9z" mask="url(#b)"/>
                <path fill="#FEFEFE" d="M569.448 3.255c-20.363 0-36.93 16.568-36.93 36.932 0 20.365 16.567 36.933 36.93 36.933 20.364 0 36.93-16.568 36.93-36.933 0-20.364-16.566-36.932-36.93-36.932m0 75.645c-21.344 0-38.71-17.366-38.71-38.713 0-21.346 17.366-38.711 38.71-38.711 21.345 0 38.71 17.365 38.71 38.711 0 21.347-17.365 38.713-38.71 38.713M229.957 152.766h73.862V78.9h-73.862v73.866zm-1.78 1.78h77.42V77.12h-77.42v77.424z" mask="url(#b)"/>
                <path fill="#FEFEFE" d="M266.887 78.9c-20.363 0-36.93 16.569-36.93 36.933s16.567 36.933 36.93 36.933c20.364 0 36.931-16.569 36.931-36.933S287.251 78.9 266.888 78.9m0 75.645c-21.346 0-38.71-17.366-38.71-38.712 0-21.346 17.364-38.713 38.71-38.713 21.344 0 38.71 17.367 38.71 38.713s-17.366 38.712-38.71 38.712" mask="url(#b)"/>
                <path fill="#FEFEFE" d="M266.887 97.811c-9.937 0-18.02 8.085-18.02 18.022 0 9.937 8.083 18.022 18.02 18.022 9.938 0 18.022-8.085 18.022-18.022 0-9.937-8.084-18.022-18.022-18.022m0 37.823c-10.918 0-19.8-8.883-19.8-19.801 0-10.919 8.882-19.801 19.8-19.801 10.918 0 19.8 8.882 19.8 19.8 0 10.92-8.882 19.802-19.8 19.802M229.957 304.056h73.862V230.19h-73.862v73.866zm-1.78 1.78h77.42v-77.424h-77.42v77.424z" mask="url(#b)"/>
                <path fill="#FEFEFE" d="M266.887 230.19c-20.363 0-36.93 16.57-36.93 36.934 0 20.364 16.567 36.933 36.93 36.933 20.364 0 36.931-16.57 36.931-36.933 0-20.364-16.567-36.933-36.93-36.933m0 75.645c-21.346 0-38.71-17.366-38.71-38.712 0-21.346 17.364-38.713 38.71-38.713 21.344 0 38.71 17.367 38.71 38.713s-17.366 38.712-38.71 38.712" mask="url(#b)"/>
                <path fill="#FEFEFE" d="M266.887 249.102c-9.937 0-18.02 8.085-18.02 18.022 0 9.937 8.083 18.021 18.02 18.021 9.938 0 18.022-8.084 18.022-18.021 0-9.937-8.084-18.022-18.022-18.022m0 37.822c-10.918 0-19.8-8.882-19.8-19.8 0-10.919 8.882-19.801 19.8-19.801 10.918 0 19.8 8.882 19.8 19.8 0 10.92-8.882 19.801-19.8 19.801M683.798 77.12h73.861V3.255H683.8V77.12zm-1.78 1.78h77.42V1.476h-77.42V78.9z" mask="url(#b)"/>
                <path fill="#FEFEFE" d="M720.728 3.255c-20.362 0-36.93 16.568-36.93 36.932 0 20.365 16.568 36.933 36.93 36.933 20.363 0 36.931-16.568 36.931-36.933 0-20.364-16.568-36.932-36.93-36.932m0 75.645c-21.345 0-38.71-17.366-38.71-38.713 0-21.346 17.365-38.711 38.71-38.711 21.344 0 38.71 17.365 38.71 38.711 0 21.347-17.366 38.713-38.71 38.713" mask="url(#b)"/>
                <path fill="#FEFEFE" d="M720.728 22.166c-9.936 0-18.02 8.085-18.02 18.021 0 9.938 8.084 18.022 18.02 18.022 9.937 0 18.021-8.084 18.021-18.022 0-9.936-8.084-18.02-18.02-18.02m0 37.822c-10.919 0-19.8-8.883-19.8-19.802 0-10.918 8.881-19.8 19.8-19.8 10.917 0 19.799 8.882 19.799 19.8 0 10.92-8.882 19.802-19.8 19.802M608.158 379.702h73.86v-73.866h-73.86v73.866zm-1.779 1.78h77.42v-77.425h-77.42v77.424z" mask="url(#b)"/>
                <path fill="#FEFEFE" d="M645.088 305.836c-20.362 0-36.93 16.568-36.93 36.933 0 20.364 16.568 36.933 36.93 36.933 20.364 0 36.93-16.57 36.93-36.933 0-20.365-16.566-36.933-36.93-36.933m0 75.645c-21.344 0-38.71-17.366-38.71-38.712 0-21.347 17.366-38.713 38.71-38.713 21.346 0 38.71 17.366 38.71 38.713 0 21.346-17.364 38.712-38.71 38.712" mask="url(#b)"/>
                <path fill="#FEFEFE" d="M645.088 324.747c-9.936 0-18.02 8.085-18.02 18.022 0 9.937 8.084 18.021 18.02 18.021 9.937 0 18.021-8.084 18.021-18.021 0-9.937-8.084-18.022-18.02-18.022m0 37.822c-10.918 0-19.8-8.882-19.8-19.8 0-10.92 8.882-19.802 19.8-19.802 10.917 0 19.8 8.883 19.8 19.802 0 10.918-8.883 19.8-19.8 19.8M456.877 228.412h73.861v-73.867h-73.86v73.867zm-1.778 1.778h77.418v-77.424h-77.418v77.424z" mask="url(#b)"/>
                <path fill="#FEFEFE" d="M493.807 154.545c-20.362 0-36.93 16.568-36.93 36.933s16.568 36.933 36.93 36.933c20.364 0 36.931-16.568 36.931-36.933s-16.567-36.933-36.93-36.933m0 75.646c-21.345 0-38.71-17.367-38.71-38.713 0-21.347 17.365-38.713 38.71-38.713 21.345 0 38.71 17.366 38.71 38.713 0 21.346-17.365 38.713-38.71 38.713" mask="url(#b)"/>
                <path fill="#FEFEFE" d="M493.807 173.456c-9.936 0-18.02 8.085-18.02 18.022 0 9.938 8.084 18.022 18.02 18.022 9.937 0 18.021-8.084 18.021-18.022 0-9.937-8.084-18.022-18.02-18.022m0 37.824c-10.918 0-19.8-8.884-19.8-19.802 0-10.92 8.882-19.801 19.8-19.801 10.918 0 19.8 8.882 19.8 19.8 0 10.919-8.882 19.803-19.8 19.803M229.957 77.12h73.862V3.255h-73.862V77.12zm-1.78 1.78h77.42V1.476h-77.42V78.9z" mask="url(#b)"/>
                <path fill="#FEFEFE" d="M229.962 3.255c.475 40.516 33.343 73.385 73.856 73.86V3.255h-73.856zM305.598 78.9h-.89c-42.198 0-76.53-34.333-76.53-76.535v-.89h77.42V78.9zM456.877 152.766h73.861V78.9h-73.86v73.866zm-1.778 1.78h77.418V77.12h-77.418v77.424z" mask="url(#b)"/>
                <path fill="#FEFEFE" d="M456.882 78.9c.476 40.516 33.343 73.385 73.856 73.86V78.9h-73.856zm75.635 75.645h-.89c-42.198 0-76.528-34.333-76.528-76.535v-.89h77.418v77.425zM305.597 228.412h73.861v-73.867h-73.86v73.867zm-1.778 1.778h77.419v-77.424h-77.42v77.424z" mask="url(#b)"/>
                <path fill="#FEFEFE" d="M305.602 154.545c.475 40.516 33.343 73.386 73.856 73.861v-73.861h-73.856zm75.636 75.646h-.89c-42.199 0-76.53-34.334-76.53-76.536v-.89h77.42v77.426zM305.597 77.12h73.861V3.255h-73.86V77.12zm-1.778 1.78h77.419V1.476h-77.42V78.9z" mask="url(#b)"/>
                <path fill="#FEFEFE" d="M305.597 3.255v73.86c40.513-.475 73.38-33.344 73.856-73.86h-73.856zm-.89 75.645h-.889V1.476h77.42v.89c0 42.201-34.331 76.534-76.53 76.534zM3.037 152.766h73.861V78.9H3.038v73.866zm-1.78 1.78h77.42V77.12H1.256v77.424z" mask="url(#b)"/>
                <path fill="#FEFEFE" d="M3.042 78.905c.478 40.51 33.343 73.377 73.85 73.855-.478-40.51-33.342-73.376-73.85-73.855zm75.634 75.64h-.889c-42.198 0-76.529-34.333-76.529-76.535v-.89h.89c42.198 0 76.528 34.334 76.528 76.535v.89zM3.037 304.056h73.861V230.19H3.038v73.866zm-1.78 1.78h77.42v-77.424H1.256v77.424z" mask="url(#b)"/>
                <path fill="#FEFEFE" d="M76.893 230.196c-40.508.479-73.373 33.345-73.85 73.855 40.506-.478 73.37-33.345 73.85-73.855m-74.746 75.64h-.89v-.89c0-42.201 34.331-76.534 76.53-76.534h.89v.889c0 42.202-34.331 76.535-76.53 76.535M229.957 228.412h73.86v-73.867h-73.86v73.867zm-1.78 1.778h77.42v-77.424h-77.42v77.424z" mask="url(#b)"/>
                <path fill="#FEFEFE" d="M303.812 154.55c-40.507.479-73.372 33.346-73.85 73.856 40.507-.478 73.371-33.345 73.85-73.856m-74.745 75.64h-.89v-.889c0-42.201 34.331-76.535 76.53-76.535h.89v.889c0 42.202-34.332 76.536-76.53 76.536M532.517 228.412h73.862v-73.867h-73.862v73.867zm-1.779 1.778h77.42v-77.424h-77.42v77.424z" mask="url(#b)"/>
                <path fill="#FEFEFE" d="M532.522 154.55c.48 40.511 33.344 73.378 73.851 73.856-.477-40.51-33.342-73.376-73.85-73.855zm75.636 75.64h-.89c-42.198 0-76.53-34.332-76.53-76.534v-.889h.89c42.199 0 76.53 34.333 76.53 76.534v.89zM683.798 379.702h73.862v-73.866h-73.862v73.866zm-1.78 1.78h77.42v-77.425h-77.42v77.425z" mask="url(#b)"/>
                <path fill="#FEFEFE" d="M757.654 305.84c-40.508.48-73.372 33.346-73.85 73.856 40.507-.478 73.372-33.345 73.85-73.855m-74.746 75.64h-.89v-.89c0-42.201 34.333-76.534 76.531-76.534h.89v.889c0 42.201-34.332 76.535-76.53 76.535M381.238 77.12h73.86V3.255h-73.86V77.12zm-1.78 1.78h77.42V1.476h-77.42V78.9z" mask="url(#b)"/>
                <path fill="#FEFEFE" d="M381.243 3.26c.478 40.51 33.343 73.377 73.85 73.855-.478-40.51-33.343-73.376-73.85-73.855zm75.634 75.64h-.889c-42.199 0-76.53-34.333-76.53-76.535v-.889h.89c42.199 0 76.529 34.333 76.529 76.534v.89zM456.877 379.702h73.861v-73.866h-73.86v73.866zm-1.778 1.78h77.418v-77.425h-77.418v77.424z" mask="url(#b)"/>
                <path fill="#FEFEFE" d="M456.882 305.84c.48 40.511 33.343 73.378 73.85 73.856-.477-40.51-33.341-73.376-73.85-73.855zm75.635 75.64h-.89c-42.198 0-76.528-34.333-76.528-76.534v-.89h.889c42.199 0 76.53 34.334 76.53 76.535v.89z" mask="url(#b)"/>
                <path fill="#FEFEFE" d="M381.238 304.056h73.86V230.19h-73.86v73.866zm-1.78 1.78h77.42v-77.424h-77.42v77.424z" mask="url(#b)"/>
                <path fill="#FEFEFE" d="M381.243 230.196c.478 40.51 33.343 73.377 73.85 73.855-.478-40.51-33.343-73.376-73.85-73.855zm75.634 75.64h-.889c-42.199 0-76.53-34.333-76.53-76.535v-.89h.89c42.199 0 76.529 34.334 76.529 76.535v.89zM305.597 152.766h73.861V78.9h-73.86v73.866zm-1.778 1.78h77.419V77.12h-77.42v77.424z" mask="url(#b)"/>
                <path fill="#FEFEFE" d="M305.603 152.766h73.855V78.905c-40.513.476-73.38 33.345-73.855 73.86zm75.635 1.78h-77.42v-.89c0-42.202 34.331-76.536 76.53-76.536h.89v77.425z" mask="url(#b)"/>
                <path fill="#FEFEFE" d="M343.428 152.766h36.03v-36.034c-19.66.467-35.564 16.373-36.03 36.034zm37.81 1.78h-39.6v-.89c0-21.347 17.365-38.713 38.71-38.713h.89v39.602zM456.877 77.12h73.861V3.255h-73.86V77.12zM455.1 78.9h77.418V1.476h-77.418V78.9z" mask="url(#b)"/>
                <path fill="#FEFEFE" d="M456.882 77.12h73.856V3.26c-40.513.476-73.38 33.345-73.856 73.86zm75.635 1.78H455.1v-.89c0-42.201 34.33-76.534 76.529-76.534h.89V78.9z" mask="url(#b)"/>
                <path fill="#FEFEFE" d="M494.707 77.12h36.031V41.087c-19.66.467-35.564 16.373-36.03 36.033zm37.81 1.78h-39.598v-.89c0-21.346 17.364-38.712 38.708-38.712h.89V78.9zM683.798 757.928h73.862v-73.866h-73.862v73.866zm-1.78 1.78h77.42v-77.425h-77.42v77.424zM456.878 455.348h73.862v-73.866h-73.862v73.866zm-1.779 1.779h77.42v-77.425h-77.42v77.425zM608.158 606.638h73.86v-73.867h-73.86v73.867zm-1.779 1.78h77.42v-77.425h-77.42v77.424z" mask="url(#b)"/>
                <path fill="#FEFEFE" d="M532.518 682.283h73.86v-73.866h-73.86v73.866zm-1.778 1.779h77.418v-77.424H530.74v77.424zM532.518 530.993h73.86v-73.866h-73.86v73.866zm-1.778 1.78h77.418v-77.425H530.74v77.425zM154.317 682.283h73.861v-73.866h-73.861v73.866zm-1.78 1.779h77.42v-77.424h-77.42v77.424zM154.317 455.348h73.861V381.48h-73.861v73.867zm-1.78 1.779h77.42v-77.425h-77.42v77.425z" mask="url(#b)"/>
                <path fill="#FEFEFE" d="M78.676 757.928h73.861v-73.866h-73.86v73.866zm-1.778 1.78h77.419v-77.425H76.898v77.424zM229.958 530.993h73.86v-73.866h-73.86v73.866zm-1.78 1.78h77.42v-77.425h-77.42v77.425zM608.158 757.928h73.86v-73.866h-73.86v73.866zm-1.779 1.78h77.42v-77.425h-77.42v77.424z" mask="url(#b)"/>
                <path fill="#FEFEFE" d="M609.416 684.062l72.603 72.609v-72.609h-72.603zm74.382 76.903l-78.677-78.682h78.677v78.682zM381.238 455.348h73.861v-73.866h-73.861v73.866zm-1.78 1.779h77.42v-77.425h-77.42v77.425z" mask="url(#b)"/>
                <path fill="#FEFEFE" d="M382.495 381.482L455.1 454.09v-72.608h-72.605zm74.383 76.902l-78.677-78.682h78.677v78.682zM608.158 682.283h73.86v-73.866h-73.86v73.866zm-1.779 1.779h77.42v-77.424h-77.42v77.424z" mask="url(#b)"/>
                <path fill="#FEFEFE" d="M609.416 682.283h72.603v-72.608l-72.603 72.608zm74.382 1.78H605.12l78.677-78.683v78.682zM381.238 530.992h73.861v-73.865h-73.861v73.865zm-1.78 1.78h77.42v-77.424h-77.42v77.423z" mask="url(#b)"/>
                <path fill="#FEFEFE" d="M382.495 530.993H455.1v-72.609l-72.605 72.609zm74.383 1.778h-78.677l78.677-78.682v78.682zM3.037 682.283h73.861v-73.866H3.038v73.866zm-1.78 1.779h77.42v-77.424H1.256v77.424z" mask="url(#b)"/>
                <path fill="#FEFEFE" d="M4.294 608.417l72.604 72.609v-72.609H4.294zm74.382 76.903L0 606.638h78.676v78.682z" mask="url(#b)"/>
                <path fill="#FEFEFE" d="M3.037 606.638h73.861v-73.867H3.038v73.867zm-1.78 1.78h77.42v-77.425H1.256v77.424z" mask="url(#b)"/>
                <path fill="#FEFEFE" d="M4.294 606.638h72.604V534.03L4.294 606.64zm74.382 1.78H0l78.676-78.684v78.683z" mask="url(#b)"/>
                <path fill="#FEFEFE" d="M78.676 606.638h73.861v-73.867h-73.86v73.867zm-1.778 1.78h77.419v-77.425H76.898v77.424z" mask="url(#b)"/>
                <path fill="#FEFEFE" d="M78.676 606.638h72.604L78.676 534.03v72.61zm76.899 1.78H76.898v-78.684l78.677 78.683z" mask="url(#b)"/>
                <path fill="#FEFEFE" d="M78.676 682.283h73.861v-73.866h-73.86v73.866zm-1.778 1.779h77.419v-77.424H76.898v77.424z" mask="url(#b)"/>
                <path fill="#FEFEFE" d="M78.676 608.417v72.609l72.604-72.609H78.676zm-1.778 76.903v-78.682h78.677L76.898 685.32zM683.798 606.638h73.862v-73.867h-73.862v73.867zm-1.78 1.78h77.42v-77.425h-77.42v77.424z" mask="url(#b)"/>
                <path fill="#FEFEFE" d="M685.055 606.638h72.605V534.03l-72.605 72.61zm74.384 1.78H680.76l78.678-78.684v78.683zM608.158 455.348h73.86v-73.866h-73.86v73.866zm-1.779 1.779h77.42v-77.425h-77.42v77.425z" mask="url(#b)"/>
                <path fill="#FEFEFE" d="M609.416 455.347h72.603V382.74l-72.603 72.608zm74.382 1.78H605.12l78.677-78.682v78.682z" mask="url(#b)"/>
                <path fill="#FEFEFE" d="M532.518 455.348h73.86v-73.866h-73.86v73.866zm-1.778 1.779h77.418v-77.425H530.74v77.425z" mask="url(#b)"/>
                <path fill="#FEFEFE" d="M532.518 455.347h72.604l-72.604-72.608v72.608zm76.898 1.78h-78.677v-78.682l78.677 78.682z" mask="url(#b)"/>
                <path fill="#FEFEFE" d="M608.158 530.992h73.86v-73.865h-73.86v73.865zm-1.779 1.78h77.42v-77.424h-77.42v77.423z" mask="url(#b)"/>
                <path fill="#FEFEFE" d="M608.158 457.127v72.608l72.604-72.608h-72.604zm-1.78 76.902v-78.682h78.677L606.38 534.03zM305.597 682.283h73.861v-73.866h-73.86v73.866zm-1.778 1.779h77.419v-77.424h-77.42v77.424z" mask="url(#b)"/>
                <path fill="#FEFEFE" d="M306.855 608.417l72.604 72.609v-72.609h-72.604zm74.382 76.903l-78.676-78.682h78.676v78.682zM154.317 530.993h73.861v-73.866h-73.861v73.866zm-1.78 1.78h77.42v-77.425h-77.42v77.425z" mask="url(#b)"/>
                <path fill="#FEFEFE" d="M155.575 457.127l72.604 72.609v-72.61h-72.604zm74.382 76.903l-78.677-78.683h78.677v78.683zM532.518 757.928h73.86v-73.866h-73.86v73.866zm-1.778 1.78h77.418v-77.425H530.74v77.424z" mask="url(#b)"/>
                <path fill="#FEFEFE" d="M569.448 684.062c-20.362 0-36.93 16.57-36.93 36.933 0 20.365 16.568 36.933 36.93 36.933 20.364 0 36.93-16.568 36.93-36.933 0-20.364-16.566-36.933-36.93-36.933m0 75.645c-21.344 0-38.709-17.365-38.709-38.712 0-21.346 17.365-38.712 38.71-38.712 21.344 0 38.71 17.366 38.71 38.712 0 21.347-17.366 38.712-38.71 38.712M683.798 455.348h73.862v-73.866h-73.862v73.866zm-1.78 1.779h77.42v-77.425h-77.42v77.425z" mask="url(#b)"/>
                <path fill="#FEFEFE" d="M720.728 381.482c-20.362 0-36.93 16.568-36.93 36.933 0 20.364 16.568 36.932 36.93 36.932 20.364 0 36.932-16.568 36.932-36.932 0-20.365-16.568-36.933-36.932-36.933m0 75.645c-21.344 0-38.71-17.367-38.71-38.712 0-21.347 17.366-38.713 38.71-38.713 21.345 0 38.711 17.366 38.711 38.713 0 21.345-17.366 38.712-38.71 38.712M305.597 455.348h73.861v-73.866h-73.86v73.866zm-1.778 1.779h77.419v-77.425h-77.42v77.425z" mask="url(#b)"/>
                <path fill="#FEFEFE" d="M342.528 381.482c-20.363 0-36.93 16.568-36.93 36.933 0 20.364 16.567 36.932 36.93 36.932s36.93-16.568 36.93-36.932c0-20.365-16.567-36.933-36.93-36.933m0 75.645c-21.345 0-38.71-17.367-38.71-38.712 0-21.347 17.365-38.713 38.71-38.713 21.344 0 38.71 17.366 38.71 38.713 0 21.345-17.366 38.712-38.71 38.712M532.518 606.638h73.86v-73.867h-73.86v73.867zm-1.778 1.78h77.418v-77.425H530.74v77.424z" mask="url(#b)"/>
                <path fill="#FEFEFE" d="M569.448 532.771c-20.362 0-36.93 16.57-36.93 36.934 0 20.365 16.568 36.933 36.93 36.933 20.364 0 36.93-16.568 36.93-36.933s-16.566-36.934-36.93-36.934m0 75.646c-21.344 0-38.709-17.366-38.709-38.712 0-21.346 17.365-38.713 38.71-38.713 21.344 0 38.71 17.367 38.71 38.713s-17.366 38.712-38.71 38.712M3.037 530.993h73.861v-73.866H3.038v73.866zm-1.78 1.78h77.42v-77.425H1.256v77.425z" mask="url(#b)"/>
                <path fill="#FEFEFE" d="M39.967 457.127c-20.363 0-36.93 16.568-36.93 36.933 0 20.364 16.567 36.933 36.93 36.933s36.93-16.569 36.93-36.933c0-20.365-16.567-36.933-36.93-36.933m0 75.646c-21.345 0-38.71-17.367-38.71-38.713 0-21.347 17.365-38.713 38.71-38.713 21.345 0 38.71 17.366 38.71 38.713 0 21.346-17.365 38.713-38.71 38.713" mask="url(#b)"/>
                <path fill="#FEFEFE" d="M78.676 530.992h73.861v-73.865h-73.86v73.865zm-1.778 1.78h77.419v-77.424H76.898v77.423z" mask="url(#b)"/>
                <path fill="#FEFEFE" d="M115.607 457.127c-20.363 0-36.93 16.568-36.93 36.933 0 20.364 16.567 36.933 36.93 36.933s36.93-16.57 36.93-36.933c0-20.365-16.567-36.933-36.93-36.933m0 75.644c-21.345 0-38.71-17.365-38.71-38.711 0-21.347 17.365-38.713 38.71-38.713 21.345 0 38.71 17.366 38.71 38.713 0 21.346-17.365 38.711-38.71 38.711M305.597 606.638h73.861v-73.867h-73.86v73.867zm-1.778 1.78h77.419v-77.425h-77.42v77.424z" mask="url(#b)"/>
                <path fill="#FEFEFE" d="M342.528 532.771c-20.363 0-36.93 16.57-36.93 36.933 0 20.366 16.567 36.934 36.93 36.934s36.93-16.568 36.93-36.934c0-20.364-16.567-36.933-36.93-36.933m0 75.646c-21.345 0-38.71-17.366-38.71-38.713 0-21.346 17.365-38.712 38.71-38.712 21.344 0 38.71 17.366 38.71 38.712 0 21.347-17.366 38.713-38.71 38.713M154.317 757.928h73.861v-73.866h-73.861v73.866zm-1.78 1.78h77.42v-77.425h-77.42v77.424z" mask="url(#b)"/>
                <path fill="#FEFEFE" d="M191.248 684.062c-20.364 0-36.931 16.57-36.931 36.933 0 20.365 16.567 36.933 36.93 36.933 20.364 0 36.931-16.568 36.931-36.933 0-20.364-16.567-36.933-36.93-36.933m0 75.645c-21.345 0-38.71-17.365-38.71-38.712 0-21.346 17.365-38.712 38.71-38.712 21.345 0 38.71 17.366 38.71 38.712 0 21.347-17.365 38.712-38.71 38.712M456.878 682.283h73.862v-73.866h-73.862v73.866zm-1.779 1.779h77.42v-77.424h-77.42v77.424z" mask="url(#b)"/>
                <path fill="#FEFEFE" d="M493.809 608.417c-20.364 0-36.93 16.569-36.93 36.933 0 20.365 16.566 36.933 36.93 36.933 20.362 0 36.93-16.568 36.93-36.933 0-20.364-16.568-36.933-36.93-36.933m0 75.645c-21.345 0-38.71-17.365-38.71-38.712 0-21.346 17.365-38.712 38.71-38.712 21.344 0 38.71 17.366 38.71 38.712 0 21.347-17.366 38.712-38.71 38.712" mask="url(#b)"/>
                <path fill="#FEFEFE" d="M493.809 627.329c-9.937 0-18.021 8.085-18.021 18.02 0 9.938 8.084 18.023 18.02 18.023 9.937 0 18.02-8.085 18.02-18.022 0-9.936-8.083-18.021-18.02-18.021m0 37.822c-10.917 0-19.8-8.882-19.8-19.801 0-10.918 8.883-19.8 19.8-19.8 10.918 0 19.8 8.882 19.8 19.8 0 10.919-8.882 19.801-19.8 19.801M456.878 530.992h73.862v-73.865h-73.862v73.865zm-1.779 1.78h77.42v-77.424h-77.42v77.423z" mask="url(#b)"/>
                <path fill="#FEFEFE" d="M493.809 457.127c-20.364 0-36.93 16.568-36.93 36.933 0 20.364 16.566 36.933 36.93 36.933 20.362 0 36.93-16.57 36.93-36.933 0-20.365-16.568-36.933-36.93-36.933m0 75.644c-21.345 0-38.71-17.365-38.71-38.711 0-21.347 17.365-38.713 38.71-38.713 21.344 0 38.71 17.366 38.71 38.713 0 21.346-17.366 38.711-38.71 38.711" mask="url(#b)"/>
                <path fill="#FEFEFE" d="M493.809 476.038c-9.937 0-18.021 8.085-18.021 18.022 0 9.936 8.084 18.02 18.02 18.02 9.937 0 18.02-8.084 18.02-18.02 0-9.937-8.083-18.022-18.02-18.022m0 37.822c-10.917 0-19.8-8.882-19.8-19.8 0-10.92 8.883-19.802 19.8-19.802 10.918 0 19.8 8.883 19.8 19.802 0 10.918-8.882 19.8-19.8 19.8M3.037 757.928h73.861v-73.866H3.038v73.866zm-1.78 1.78h77.42v-77.425H1.256v77.424z" mask="url(#b)"/>
                <path fill="#FEFEFE" d="M39.967 684.062c-20.363 0-36.93 16.57-36.93 36.933 0 20.365 16.567 36.933 36.93 36.933s36.93-16.568 36.93-36.933c0-20.364-16.567-36.933-36.93-36.933m0 75.645c-21.345 0-38.71-17.365-38.71-38.712 0-21.346 17.365-38.712 38.71-38.712 21.345 0 38.71 17.366 38.71 38.712 0 21.347-17.365 38.712-38.71 38.712" mask="url(#b)"/>
                <path fill="#FEFEFE" d="M39.967 702.974c-9.936 0-18.02 8.085-18.02 18.021 0 9.938 8.084 18.022 18.02 18.022 9.937 0 18.02-8.084 18.02-18.022 0-9.936-8.083-18.021-18.02-18.021m0 37.822c-10.918 0-19.8-8.882-19.8-19.801 0-10.918 8.882-19.8 19.8-19.8 10.918 0 19.8 8.882 19.8 19.8 0 10.919-8.882 19.8-19.8 19.8M78.676 455.348h73.861v-73.866h-73.86v73.866zm-1.778 1.779h77.419v-77.425H76.898v77.425z" mask="url(#b)"/>
                <path fill="#FEFEFE" d="M115.607 381.482c-20.363 0-36.93 16.568-36.93 36.933 0 20.364 16.567 36.932 36.93 36.932s36.93-16.568 36.93-36.932c0-20.365-16.567-36.933-36.93-36.933m0 75.645c-21.345 0-38.71-17.367-38.71-38.712 0-21.347 17.365-38.713 38.71-38.713 21.345 0 38.71 17.366 38.71 38.713 0 21.345-17.365 38.712-38.71 38.712" mask="url(#b)"/>
                <path fill="#FEFEFE" d="M115.607 400.392c-9.936 0-18.02 8.086-18.02 18.022 0 9.937 8.084 18.022 18.02 18.022 9.937 0 18.02-8.085 18.02-18.022 0-9.936-8.083-18.022-18.02-18.022m0 37.823c-10.918 0-19.8-8.882-19.8-19.8 0-10.92 8.882-19.801 19.8-19.801 10.918 0 19.8 8.882 19.8 19.8 0 10.919-8.882 19.801-19.8 19.801M229.958 606.638h73.86v-73.867h-73.86v73.867zm-1.78 1.78h77.42v-77.425h-77.42v77.424z" mask="url(#b)"/>
                <path fill="#FEFEFE" d="M266.888 532.771c-20.363 0-36.93 16.57-36.93 36.934 0 20.365 16.567 36.933 36.93 36.933s36.93-16.568 36.93-36.933-16.567-36.934-36.93-36.934m0 75.646c-21.345 0-38.71-17.366-38.71-38.712 0-21.346 17.365-38.713 38.71-38.713 21.345 0 38.71 17.367 38.71 38.713s-17.365 38.712-38.71 38.712" mask="url(#b)"/>
                <path fill="#FEFEFE" d="M266.888 551.683c-9.936 0-18.02 8.086-18.02 18.022 0 9.937 8.084 18.022 18.02 18.022 9.937 0 18.02-8.085 18.02-18.022 0-9.936-8.083-18.022-18.02-18.022m0 37.823c-10.918 0-19.8-8.883-19.8-19.8 0-10.92 8.882-19.802 19.8-19.802 10.918 0 19.8 8.883 19.8 19.801s-8.882 19.801-19.8 19.801M456.878 757.928h73.862v-73.866h-73.862v73.866zm-1.779 1.78h77.42v-77.425h-77.42v77.424z" mask="url(#b)"/>
                <path fill="#FEFEFE" d="M456.878 757.928h73.856c-.476-40.516-33.343-73.385-73.856-73.86v73.86zm75.64 1.78h-77.42v-77.425h.89c42.2 0 76.53 34.333 76.53 76.535v.89zM229.958 682.283h73.86v-73.866h-73.86v73.866zm-1.78 1.779h77.42v-77.424h-77.42v77.424z" mask="url(#b)"/>
                <path fill="#FEFEFE" d="M229.957 682.283h73.856c-.475-40.516-33.342-73.385-73.856-73.86v73.86zm75.64 1.78h-77.42v-77.425h.89c42.2 0 76.53 34.333 76.53 76.535v.89zM381.238 606.638h73.861v-73.867h-73.861v73.867zm-1.78 1.78h77.42v-77.425h-77.42v77.424z" mask="url(#b)"/>
                <path fill="#FEFEFE" d="M381.238 606.638h73.856c-.475-40.516-33.343-73.386-73.856-73.862v73.862zm75.64 1.78h-77.42v-77.426h.89c42.199 0 76.53 34.334 76.53 76.536v.89zM381.238 757.928h73.861v-73.866h-73.861v73.866zm-1.78 1.78h77.42v-77.425h-77.42v77.424z" mask="url(#b)"/>
                <path fill="#FEFEFE" d="M381.243 757.928h73.856v-73.86c-40.513.475-73.381 33.344-73.856 73.86zm75.635 1.78h-77.42v-.89c0-42.202 34.332-76.535 76.53-76.535h.89v77.424zM683.798 682.283h73.862v-73.866h-73.862v73.866zm-1.78 1.779h77.42v-77.424h-77.42v77.424z" mask="url(#b)"/>
                <path fill="#FEFEFE" d="M683.803 608.422c.48 40.511 33.343 73.378 73.851 73.855-.477-40.51-33.342-73.376-73.85-73.855zm75.636 75.64h-.89c-42.198 0-76.53-34.333-76.53-76.534v-.89h.89c42.199 0 76.53 34.334 76.53 76.534v.89zM683.798 530.992h73.862v-73.865h-73.862v73.865zm-1.78 1.78h77.42v-77.424h-77.42v77.423z" mask="url(#b)"/>
                <path fill="#FEFEFE" d="M757.654 457.132c-40.508.478-73.372 33.345-73.85 73.855 40.507-.478 73.372-33.345 73.85-73.855m-74.746 75.64h-.89v-.89c0-42.201 34.333-76.534 76.531-76.534h.89v.889c0 42.201-34.332 76.534-76.53 76.534M456.878 606.638h73.862v-73.867h-73.862v73.867zm-1.779 1.78h77.42v-77.425h-77.42v77.424z" mask="url(#b)"/>
                <path fill="#FEFEFE" d="M530.734 532.778c-40.508.478-73.372 33.345-73.85 73.855 40.507-.478 73.371-33.345 73.85-73.855m-74.745 75.639h-.89v-.889c0-42.202 34.33-76.534 76.53-76.534h.89v.889c0 42.201-34.332 76.534-76.53 76.534M154.317 606.638h73.861v-73.867h-73.861v73.867zm-1.78 1.78h77.42v-77.425h-77.42v77.424z" mask="url(#b)"/>
                <path fill="#FEFEFE" d="M154.322 532.776c.479 40.512 33.343 73.379 73.85 73.857-.477-40.511-33.341-73.378-73.85-73.857zm75.635 75.641h-.89c-42.197 0-76.53-34.333-76.53-76.536v-.888h.89c42.2 0 76.53 34.333 76.53 76.535v.89zM3.037 455.348h73.861V381.48H3.038v73.867zm-1.78 1.779h77.42v-77.425H1.256v77.425z" mask="url(#b)"/>
                <path fill="#FEFEFE" d="M76.893 381.487c-40.508.479-73.373 33.345-73.85 73.855 40.506-.478 73.37-33.345 73.85-73.855m-74.746 75.64h-.89v-.89c0-42.202 34.331-76.534 76.53-76.534h.89v.889c0 42.201-34.331 76.535-76.53 76.535M305.597 757.928h73.861v-73.866h-73.86v73.866zm-1.778 1.78h77.419v-77.425h-77.42v77.424z" mask="url(#b)"/>
                <path fill="#FEFEFE" d="M305.603 684.067c.479 40.51 33.343 73.377 73.85 73.856-.478-40.51-33.343-73.377-73.85-73.856zm75.635 75.64h-.89c-42.199 0-76.53-34.332-76.53-76.535v-.889h.89c42.198 0 76.53 34.334 76.53 76.535v.89zM229.958 455.348h73.86v-73.866h-73.86v73.866zm-1.78 1.779h77.42v-77.425h-77.42v77.425z" mask="url(#b)"/>
                <path fill="#FEFEFE" d="M229.962 381.487c.48 40.51 33.344 73.377 73.85 73.855-.478-40.51-33.342-73.376-73.85-73.855zm75.635 75.64h-.89c-42.197 0-76.529-34.334-76.529-76.535v-.89h.89c42.199 0 76.53 34.333 76.53 76.535v.89z" mask="url(#b)"/>
                <path fill="#FEFEFE" d="M305.597 530.992h73.861v-73.865h-73.86v73.865zm-1.778 1.78h77.419v-77.424h-77.42v77.423z" mask="url(#b)"/>
                <path fill="#FEFEFE" d="M305.603 457.132c.479 40.51 33.343 73.377 73.85 73.855-.478-40.51-33.343-73.377-73.85-73.855zm75.635 75.64h-.89c-42.199 0-76.53-34.334-76.53-76.535v-.89h.89c42.198 0 76.53 34.334 76.53 76.535v.89zM381.238 682.283h73.861v-73.866h-73.861v73.866zm-1.78 1.779h77.42v-77.424h-77.42v77.424z" mask="url(#b)"/>
                <path fill="#FEFEFE" d="M381.238 608.417v73.86c40.513-.474 73.38-33.344 73.856-73.86h-73.856zm-.89 75.645h-.89v-77.424h77.42v.89c0 42.202-34.331 76.534-76.53 76.534z" mask="url(#b)"/>
                <path fill="#FEFEFE" d="M381.238 608.417v36.033c19.659-.467 35.563-16.372 36.03-36.033h-36.03zm-.89 37.823h-.89v-39.602h39.6v.89c0 21.346-17.366 38.712-38.71 38.712zM229.958 757.928h73.86v-73.866h-73.86v73.866zm-1.78 1.78h77.42v-77.425h-77.42v77.424z" mask="url(#b)"/>
                <path fill="#FEFEFE" d="M229.957 684.062v73.86c40.514-.474 73.38-33.343 73.856-73.86h-73.856zm-.89 75.645h-.89v-77.424h77.42v.89c0 42.202-34.33 76.534-76.53 76.534z" mask="url(#b)"/>
                <path fill="#FEFEFE" d="M229.957 684.062v36.033c19.66-.467 35.564-16.371 36.031-36.033h-36.03zm-.89 37.823h-.89v-39.602h39.6v.89c0 21.346-17.364 38.712-38.71 38.712zM2.993 833.568h73.86v-73.866H2.994v73.866zm-1.779 1.779h77.42v-77.424H1.213v77.424zM154.273 909.213h73.86v-73.866h-73.86v73.866zm-1.779 1.779h77.418v-77.423h-77.418v77.423zM532.473 909.213h73.862v-73.866h-73.862v73.866zm-1.778 1.779h77.42v-77.423h-77.42v77.423z" mask="url(#b)"/>
                <path fill="#FEFEFE" d="M608.115 833.568h73.86v-73.866h-73.86v73.866zm-1.78 1.779h77.419v-77.424h-77.419v77.424zM78.633 833.568h73.861v-73.866h-73.86v73.866zm-1.779 1.779h77.419v-77.424H76.854v77.424z" mask="url(#b)"/>
                <path fill="#FEFEFE" d="M78.633 833.568h72.603l-72.603-72.609v72.609zm76.898 1.779H76.854v-78.682l78.677 78.682z" mask="url(#b)"/>
                <path fill="#FEFEFE" d="M78.633 909.213h73.861v-73.866h-73.86v73.866zm-1.779 1.779h77.419v-77.423H76.854v77.423z" mask="url(#b)"/>
                <path fill="#FEFEFE" d="M78.633 835.347v72.608l72.603-72.608H78.633zm-1.78 76.902v-78.681h78.678l-78.677 78.681zM683.754 909.213h73.86v-73.866h-73.86v73.866zm-1.779 1.779h77.419v-77.423h-77.419v77.423z" mask="url(#b)"/>
                <path fill="#FEFEFE" d="M683.754 909.213h72.604l-72.604-72.608v72.608zm76.897 1.779h-78.676V832.31l78.676 78.682z" mask="url(#b)"/>
                <path fill="#FEFEFE" d="M608.115 909.213h73.86v-73.866h-73.86v73.866zm-1.78 1.779h77.419v-77.423h-77.419v77.423z" mask="url(#b)"/>
                <path fill="#FEFEFE" d="M609.372 909.213h72.603v-72.608l-72.603 72.608zm74.382 1.779h-78.677l78.677-78.682v78.682zM381.194 909.213h73.86v-73.866h-73.86v73.866zm-1.78 1.779h77.42v-77.423h-77.42v77.423z" mask="url(#b)"/>
                <path fill="#FEFEFE" d="M381.193 909.213h72.604l-72.604-72.608v72.608zm76.898 1.779h-78.677V832.31l78.677 78.682zM154.273 833.568h73.86v-73.866h-73.86v73.866zm-1.779 1.779h77.418v-77.424h-77.418v77.424z" mask="url(#b)"/>
                <path fill="#FEFEFE" d="M191.203 759.702c-20.363 0-36.93 16.568-36.93 36.933 0 20.364 16.567 36.933 36.93 36.933s36.93-16.569 36.93-36.933c0-20.365-16.567-36.933-36.93-36.933m0 75.645c-21.345 0-38.71-17.366-38.71-38.712 0-21.347 17.365-38.712 38.71-38.712 21.345 0 38.71 17.365 38.71 38.712 0 21.346-17.365 38.712-38.71 38.712M532.473 833.568h73.862v-73.866h-73.862v73.866zm-1.778 1.779h77.42v-77.424h-77.42v77.424z" mask="url(#b)"/>
                <path fill="#FEFEFE" d="M569.405 759.702c-20.364 0-36.932 16.568-36.932 36.933 0 20.364 16.568 36.933 36.932 36.933 20.362 0 36.93-16.569 36.93-36.933 0-20.365-16.568-36.933-36.93-36.933m0 75.645c-21.345 0-38.71-17.366-38.71-38.712 0-21.347 17.365-38.712 38.71-38.712 21.344 0 38.71 17.365 38.71 38.712 0 21.346-17.366 38.712-38.71 38.712M229.912 909.213h73.862v-73.866h-73.862v73.866zm-1.778 1.779h77.42v-77.423h-77.42v77.423z" mask="url(#b)"/>
                <path fill="#FEFEFE" d="M266.843 835.347c-20.363 0-36.93 16.569-36.93 36.933s16.567 36.933 36.93 36.933c20.364 0 36.931-16.569 36.931-36.933s-16.567-36.933-36.93-36.933m0 75.645c-21.345 0-38.71-17.366-38.71-38.712 0-21.346 17.365-38.712 38.71-38.712 21.344 0 38.71 17.366 38.71 38.712 0 21.346-17.366 38.712-38.71 38.712M683.754 833.568h73.86v-73.866h-73.86v73.866zm-1.779 1.779h77.419v-77.424h-77.419v77.424z" mask="url(#b)"/>
                <path fill="#FEFEFE" d="M720.684 759.702c-20.362 0-36.93 16.568-36.93 36.933 0 20.364 16.568 36.933 36.93 36.933 20.364 0 36.93-16.569 36.93-36.933 0-20.365-16.566-36.933-36.93-36.933m0 75.645c-21.344 0-38.71-17.366-38.71-38.712 0-21.347 17.366-38.712 38.71-38.712 21.346 0 38.71 17.365 38.71 38.712 0 21.346-17.364 38.712-38.71 38.712" mask="url(#b)"/>
                <path fill="#FEFEFE" d="M720.684 778.613c-9.936 0-18.02 8.085-18.02 18.022 0 9.937 8.084 18.021 18.02 18.021 9.937 0 18.021-8.084 18.021-18.021 0-9.937-8.084-18.022-18.02-18.022m0 37.823c-10.918 0-19.8-8.883-19.8-19.801 0-10.919 8.882-19.801 19.8-19.801 10.917 0 19.8 8.882 19.8 19.801 0 10.918-8.883 19.8-19.8 19.8M229.912 833.568h73.862v-73.866h-73.862v73.866zm-1.778 1.779h77.42v-77.424h-77.42v77.424z" mask="url(#b)"/>
                <path fill="#FEFEFE" d="M229.918 759.702c.475 40.516 33.343 73.385 73.856 73.86v-73.86h-73.856zm75.635 75.645h-.89c-42.197 0-76.53-34.333-76.53-76.535v-.89h77.42v77.425zM456.833 909.213h73.861v-73.866h-73.86v73.866zm-1.778 1.779h77.418v-77.423h-77.418v77.423z" mask="url(#b)"/>
                <path fill="#FEFEFE" d="M456.839 835.347c.475 40.516 33.342 73.385 73.855 73.86v-73.86H456.84zm75.634 75.645h-.889c-42.199 0-76.53-34.333-76.53-76.535v-.89h77.42v77.425zM305.553 833.568h73.861v-73.866h-73.86v73.866zm-1.778 1.779h77.419v-77.424h-77.42v77.424z" mask="url(#b)"/>
                <path fill="#FEFEFE" d="M305.553 759.702v73.86c40.514-.475 73.381-33.344 73.856-73.86h-73.856zm-.89 75.645h-.889v-77.424h77.42v.89c0 42.2-34.33 76.534-76.53 76.534zM2.993 909.213h73.86v-73.866H2.994v73.866zm-1.779 1.779h77.42v-77.423H1.213v77.423z" mask="url(#b)"/>
                <path fill="#FEFEFE" d="M2.998 835.352c.479 40.51 33.343 73.377 73.85 73.855-.478-40.51-33.342-73.376-73.85-73.855zm75.635 75.64h-.89c-42.198 0-76.529-34.333-76.529-76.535v-.889h.89c42.198 0 76.53 34.333 76.53 76.534v.89zM381.194 833.568h73.86v-73.866h-73.86v73.866zm-1.78 1.779h77.42v-77.424h-77.42v77.424z" mask="url(#b)"/>
                <path fill="#FEFEFE" d="M381.199 759.707c.479 40.51 33.343 73.377 73.85 73.855-.478-40.51-33.343-73.376-73.85-73.855zm75.635 75.64h-.89c-42.199 0-76.53-34.333-76.53-76.535v-.889h.89c42.198 0 76.53 34.333 76.53 76.534v.89zM305.553 909.213h73.861v-73.866h-73.86v73.866zm-1.778 1.779h77.419v-77.423h-77.42v77.423z" mask="url(#b)"/>
                <path fill="#FEFEFE" d="M305.558 909.213h73.856v-73.861c-40.513.476-73.38 33.345-73.856 73.86zm75.636 1.779h-77.42v-.89c0-42.201 34.332-76.534 76.53-76.534h.89v77.424zM456.833 833.568h73.861v-73.866h-73.86v73.866zm-1.778 1.779h77.418v-77.424h-77.418v77.424z" mask="url(#b)"/>
                <path fill="#FEFEFE" d="M456.839 833.568h73.855v-73.86c-40.513.474-73.38 33.344-73.855 73.86zm75.634 1.779h-77.418v-.89c0-42.202 34.33-76.534 76.53-76.534h.888v77.424z" mask="url(#b)"/>
                <path fill="#FEFEFE" d="M494.664 833.568h36.03v-36.033c-19.66.467-35.564 16.372-36.03 36.033zm37.809 1.779h-39.598v-.89c0-21.346 17.364-38.712 38.709-38.712h.889v39.602z" mask="url(#b)"/>
            </g>
        </g>
        <g opacity=".302" transform="rotate(90 985.489 986)">
            <mask id="d" fill="#fff">
                <use xlink:href="#c"/>
            </mask>
            <path fill="#FEFEFE" d="M683.798 757.928h73.862v-73.866h-73.862v73.866zm-1.78 1.78h77.42v-77.425h-77.42v77.424zM608.158 606.638h73.86v-73.867h-73.86v73.867zm-1.779 1.78h77.42v-77.425h-77.42v77.424z" mask="url(#d)"/>
            <path fill="#FEFEFE" d="M532.518 682.283h73.86v-73.866h-73.86v73.866zm-1.778 1.779h77.418v-77.424H530.74v77.424zM532.518 530.993h73.86v-73.866h-73.86v73.866zm-1.778 1.78h77.418v-77.425H530.74v77.425zM154.317 682.283h73.861v-73.866h-73.861v73.866zm-1.78 1.779h77.42v-77.424h-77.42v77.424z" mask="url(#d)"/>
            <path fill="#FEFEFE" d="M78.676 757.928h73.861v-73.866h-73.86v73.866zm-1.778 1.78h77.419v-77.425H76.898v77.424zM229.958 530.993h73.86v-73.866h-73.86v73.866zm-1.78 1.78h77.42v-77.425h-77.42v77.425zM608.158 757.928h73.86v-73.866h-73.86v73.866zm-1.779 1.78h77.42v-77.425h-77.42v77.424z" mask="url(#d)"/>
            <path fill="#FEFEFE" d="M609.416 684.062l72.603 72.609v-72.609h-72.603zm74.382 76.903l-78.677-78.682h78.677v78.682z" mask="url(#d)"/>
            <path fill="#FEFEFE" d="M608.158 682.283h73.86v-73.866h-73.86v73.866zm-1.779 1.779h77.42v-77.424h-77.42v77.424z" mask="url(#d)"/>
            <path fill="#FEFEFE" d="M609.416 682.283h72.603v-72.608l-72.603 72.608zm74.382 1.78H605.12l78.677-78.683v78.682zM381.238 530.992h73.861v-73.865h-73.861v73.865zm-1.78 1.78h77.42v-77.424h-77.42v77.423z" mask="url(#d)"/>
            <path fill="#FEFEFE" d="M382.495 530.993H455.1v-72.609l-72.605 72.609zm74.383 1.778h-78.677l78.677-78.682v78.682zM3.037 682.283h73.861v-73.866H3.038v73.866zm-1.78 1.779h77.42v-77.424H1.256v77.424z" mask="url(#d)"/>
            <path fill="#FEFEFE" d="M4.294 608.417l72.604 72.609v-72.609H4.294zm74.382 76.903L0 606.638h78.676v78.682z" mask="url(#d)"/>
            <path fill="#FEFEFE" d="M3.037 606.638h73.861v-73.867H3.038v73.867zm-1.78 1.78h77.42v-77.425H1.256v77.424z" mask="url(#d)"/>
            <path fill="#FEFEFE" d="M4.294 606.638h72.604V534.03L4.294 606.64zm74.382 1.78H0l78.676-78.684v78.683z" mask="url(#d)"/>
            <path fill="#FEFEFE" d="M78.676 606.638h73.861v-73.867h-73.86v73.867zm-1.778 1.78h77.419v-77.425H76.898v77.424z" mask="url(#d)"/>
            <path fill="#FEFEFE" d="M78.676 606.638h72.604L78.676 534.03v72.61zm76.899 1.78H76.898v-78.684l78.677 78.683z" mask="url(#d)"/>
            <path fill="#FEFEFE" d="M78.676 682.283h73.861v-73.866h-73.86v73.866zm-1.778 1.779h77.419v-77.424H76.898v77.424z" mask="url(#d)"/>
            <path fill="#FEFEFE" d="M78.676 608.417v72.609l72.604-72.609H78.676zm-1.778 76.903v-78.682h78.677L76.898 685.32zM683.798 606.638h73.862v-73.867h-73.862v73.867zm-1.78 1.78h77.42v-77.425h-77.42v77.424z" mask="url(#d)"/>
            <path fill="#FEFEFE" d="M685.055 606.638h72.605V534.03l-72.605 72.61zm74.384 1.78H680.76l78.678-78.684v78.683zM608.158 530.992h73.86v-73.865h-73.86v73.865zm-1.779 1.78h77.42v-77.424h-77.42v77.423z" mask="url(#d)"/>
            <path fill="#FEFEFE" d="M608.158 457.127v72.608l72.604-72.608h-72.604zm-1.78 76.902v-78.682h78.677L606.38 534.03zM305.597 682.283h73.861v-73.866h-73.86v73.866zm-1.778 1.779h77.419v-77.424h-77.42v77.424z" mask="url(#d)"/>
            <path fill="#FEFEFE" d="M306.855 608.417l72.604 72.609v-72.609h-72.604zm74.382 76.903l-78.676-78.682h78.676v78.682zM154.317 530.993h73.861v-73.866h-73.861v73.866zm-1.78 1.78h77.42v-77.425h-77.42v77.425z" mask="url(#d)"/>
            <path fill="#FEFEFE" d="M155.575 457.127l72.604 72.609v-72.61h-72.604zm74.382 76.903l-78.677-78.683h78.677v78.683zM532.518 757.928h73.86v-73.866h-73.86v73.866zm-1.778 1.78h77.418v-77.425H530.74v77.424z" mask="url(#d)"/>
            <path fill="#FEFEFE" d="M569.448 684.062c-20.362 0-36.93 16.57-36.93 36.933 0 20.365 16.568 36.933 36.93 36.933 20.364 0 36.93-16.568 36.93-36.933 0-20.364-16.566-36.933-36.93-36.933m0 75.645c-21.344 0-38.709-17.365-38.709-38.712 0-21.346 17.365-38.712 38.71-38.712 21.344 0 38.71 17.366 38.71 38.712 0 21.347-17.366 38.712-38.71 38.712M532.518 606.638h73.86v-73.867h-73.86v73.867zm-1.778 1.78h77.418v-77.425H530.74v77.424z" mask="url(#d)"/>
            <path fill="#FEFEFE" d="M569.448 532.771c-20.362 0-36.93 16.57-36.93 36.934 0 20.365 16.568 36.933 36.93 36.933 20.364 0 36.93-16.568 36.93-36.933s-16.566-36.934-36.93-36.934m0 75.646c-21.344 0-38.709-17.366-38.709-38.712 0-21.346 17.365-38.713 38.71-38.713 21.344 0 38.71 17.367 38.71 38.713s-17.366 38.712-38.71 38.712M3.037 530.993h73.861v-73.866H3.038v73.866zm-1.78 1.78h77.42v-77.425H1.256v77.425z" mask="url(#d)"/>
            <path fill="#FEFEFE" d="M39.967 457.127c-20.363 0-36.93 16.568-36.93 36.933 0 20.364 16.567 36.933 36.93 36.933s36.93-16.569 36.93-36.933c0-20.365-16.567-36.933-36.93-36.933m0 75.646c-21.345 0-38.71-17.367-38.71-38.713 0-21.347 17.365-38.713 38.71-38.713 21.345 0 38.71 17.366 38.71 38.713 0 21.346-17.365 38.713-38.71 38.713" mask="url(#d)"/>
            <path fill="#FEFEFE" d="M78.676 530.992h73.861v-73.865h-73.86v73.865zm-1.778 1.78h77.419v-77.424H76.898v77.423z" mask="url(#d)"/>
            <path fill="#FEFEFE" d="M115.607 457.127c-20.363 0-36.93 16.568-36.93 36.933 0 20.364 16.567 36.933 36.93 36.933s36.93-16.57 36.93-36.933c0-20.365-16.567-36.933-36.93-36.933m0 75.644c-21.345 0-38.71-17.365-38.71-38.711 0-21.347 17.365-38.713 38.71-38.713 21.345 0 38.71 17.366 38.71 38.713 0 21.346-17.365 38.711-38.71 38.711M305.597 606.638h73.861v-73.867h-73.86v73.867zm-1.778 1.78h77.419v-77.425h-77.42v77.424z" mask="url(#d)"/>
            <path fill="#FEFEFE" d="M342.528 532.771c-20.363 0-36.93 16.57-36.93 36.933 0 20.366 16.567 36.934 36.93 36.934s36.93-16.568 36.93-36.934c0-20.364-16.567-36.933-36.93-36.933m0 75.646c-21.345 0-38.71-17.366-38.71-38.713 0-21.346 17.365-38.712 38.71-38.712 21.344 0 38.71 17.366 38.71 38.712 0 21.347-17.366 38.713-38.71 38.713M154.317 757.928h73.861v-73.866h-73.861v73.866zm-1.78 1.78h77.42v-77.425h-77.42v77.424z" mask="url(#d)"/>
            <path fill="#FEFEFE" d="M191.248 684.062c-20.364 0-36.931 16.57-36.931 36.933 0 20.365 16.567 36.933 36.93 36.933 20.364 0 36.931-16.568 36.931-36.933 0-20.364-16.567-36.933-36.93-36.933m0 75.645c-21.345 0-38.71-17.365-38.71-38.712 0-21.346 17.365-38.712 38.71-38.712 21.345 0 38.71 17.366 38.71 38.712 0 21.347-17.365 38.712-38.71 38.712M456.878 682.283h73.862v-73.866h-73.862v73.866zm-1.779 1.779h77.42v-77.424h-77.42v77.424z" mask="url(#d)"/>
            <path fill="#FEFEFE" d="M493.809 608.417c-20.364 0-36.93 16.569-36.93 36.933 0 20.365 16.566 36.933 36.93 36.933 20.362 0 36.93-16.568 36.93-36.933 0-20.364-16.568-36.933-36.93-36.933m0 75.645c-21.345 0-38.71-17.365-38.71-38.712 0-21.346 17.365-38.712 38.71-38.712 21.344 0 38.71 17.366 38.71 38.712 0 21.347-17.366 38.712-38.71 38.712" mask="url(#d)"/>
            <path fill="#FEFEFE" d="M493.809 627.329c-9.937 0-18.021 8.085-18.021 18.02 0 9.938 8.084 18.023 18.02 18.023 9.937 0 18.02-8.085 18.02-18.022 0-9.936-8.083-18.021-18.02-18.021m0 37.822c-10.917 0-19.8-8.882-19.8-19.801 0-10.918 8.883-19.8 19.8-19.8 10.918 0 19.8 8.882 19.8 19.8 0 10.919-8.882 19.801-19.8 19.801M456.878 530.992h73.862v-73.865h-73.862v73.865zm-1.779 1.78h77.42v-77.424h-77.42v77.423z" mask="url(#d)"/>
            <path fill="#FEFEFE" d="M493.809 457.127c-20.364 0-36.93 16.568-36.93 36.933 0 20.364 16.566 36.933 36.93 36.933 20.362 0 36.93-16.57 36.93-36.933 0-20.365-16.568-36.933-36.93-36.933m0 75.644c-21.345 0-38.71-17.365-38.71-38.711 0-21.347 17.365-38.713 38.71-38.713 21.344 0 38.71 17.366 38.71 38.713 0 21.346-17.366 38.711-38.71 38.711M3.037 757.928h73.861v-73.866H3.038v73.866zm-1.78 1.78h77.42v-77.425H1.256v77.424z" mask="url(#d)"/>
            <path fill="#FEFEFE" d="M39.967 684.062c-20.363 0-36.93 16.57-36.93 36.933 0 20.365 16.567 36.933 36.93 36.933s36.93-16.568 36.93-36.933c0-20.364-16.567-36.933-36.93-36.933m0 75.645c-21.345 0-38.71-17.365-38.71-38.712 0-21.346 17.365-38.712 38.71-38.712 21.345 0 38.71 17.366 38.71 38.712 0 21.347-17.365 38.712-38.71 38.712" mask="url(#d)"/>
            <path fill="#FEFEFE" d="M39.967 702.974c-9.936 0-18.02 8.085-18.02 18.021 0 9.938 8.084 18.022 18.02 18.022 9.937 0 18.02-8.084 18.02-18.022 0-9.936-8.083-18.021-18.02-18.021m0 37.822c-10.918 0-19.8-8.882-19.8-19.801 0-10.918 8.882-19.8 19.8-19.8 10.918 0 19.8 8.882 19.8 19.8 0 10.919-8.882 19.8-19.8 19.8M229.958 606.638h73.86v-73.867h-73.86v73.867zm-1.78 1.78h77.42v-77.425h-77.42v77.424z" mask="url(#d)"/>
            <path fill="#FEFEFE" d="M266.888 532.771c-20.363 0-36.93 16.57-36.93 36.934 0 20.365 16.567 36.933 36.93 36.933s36.93-16.568 36.93-36.933-16.567-36.934-36.93-36.934m0 75.646c-21.345 0-38.71-17.366-38.71-38.712 0-21.346 17.365-38.713 38.71-38.713 21.345 0 38.71 17.367 38.71 38.713s-17.365 38.712-38.71 38.712" mask="url(#d)"/>
            <path fill="#FEFEFE" d="M266.888 551.683c-9.936 0-18.02 8.086-18.02 18.022 0 9.937 8.084 18.022 18.02 18.022 9.937 0 18.02-8.085 18.02-18.022 0-9.936-8.083-18.022-18.02-18.022m0 37.823c-10.918 0-19.8-8.883-19.8-19.8 0-10.92 8.882-19.802 19.8-19.802 10.918 0 19.8 8.883 19.8 19.801s-8.882 19.801-19.8 19.801M456.878 757.928h73.862v-73.866h-73.862v73.866zm-1.779 1.78h77.42v-77.425h-77.42v77.424z" mask="url(#d)"/>
            <path fill="#FEFEFE" d="M456.878 757.928h73.856c-.476-40.516-33.343-73.385-73.856-73.86v73.86zm75.64 1.78h-77.42v-77.425h.89c42.2 0 76.53 34.333 76.53 76.535v.89zM229.958 682.283h73.86v-73.866h-73.86v73.866zm-1.78 1.779h77.42v-77.424h-77.42v77.424z" mask="url(#d)"/>
            <path fill="#FEFEFE" d="M229.957 682.283h73.856c-.475-40.516-33.342-73.385-73.856-73.86v73.86zm75.64 1.78h-77.42v-77.425h.89c42.2 0 76.53 34.333 76.53 76.535v.89zM381.238 606.638h73.861v-73.867h-73.861v73.867zm-1.78 1.78h77.42v-77.425h-77.42v77.424z" mask="url(#d)"/>
            <path fill="#FEFEFE" d="M381.238 606.638h73.856c-.475-40.516-33.343-73.386-73.856-73.862v73.862zm75.64 1.78h-77.42v-77.426h.89c42.199 0 76.53 34.334 76.53 76.536v.89zM381.238 757.928h73.861v-73.866h-73.861v73.866zm-1.78 1.78h77.42v-77.425h-77.42v77.424z" mask="url(#d)"/>
            <path fill="#FEFEFE" d="M381.243 757.928h73.856v-73.86c-40.513.475-73.381 33.344-73.856 73.86zm75.635 1.78h-77.42v-.89c0-42.202 34.332-76.535 76.53-76.535h.89v77.424zM683.798 682.283h73.862v-73.866h-73.862v73.866zm-1.78 1.779h77.42v-77.424h-77.42v77.424z" mask="url(#d)"/>
            <path fill="#FEFEFE" d="M683.803 608.422c.48 40.511 33.343 73.378 73.851 73.855-.477-40.51-33.342-73.376-73.85-73.855zm75.636 75.64h-.89c-42.198 0-76.53-34.333-76.53-76.534v-.89h.89c42.199 0 76.53 34.334 76.53 76.534v.89zM683.798 530.992h73.862v-73.865h-73.862v73.865zm-1.78 1.78h77.42v-77.424h-77.42v77.423z" mask="url(#d)"/>
            <path fill="#FEFEFE" d="M757.654 457.132c-40.508.478-73.372 33.345-73.85 73.855 40.507-.478 73.372-33.345 73.85-73.855m-74.746 75.64h-.89v-.89c0-42.201 34.333-76.534 76.531-76.534h.89v.889c0 42.201-34.332 76.534-76.53 76.534M456.878 606.638h73.862v-73.867h-73.862v73.867zm-1.779 1.78h77.42v-77.425h-77.42v77.424z" mask="url(#d)"/>
            <path fill="#FEFEFE" d="M530.734 532.778c-40.508.478-73.372 33.345-73.85 73.855 40.507-.478 73.371-33.345 73.85-73.855m-74.745 75.639h-.89v-.889c0-42.202 34.33-76.534 76.53-76.534h.89v.889c0 42.201-34.332 76.534-76.53 76.534M154.317 606.638h73.861v-73.867h-73.861v73.867zm-1.78 1.78h77.42v-77.425h-77.42v77.424z" mask="url(#d)"/>
            <path fill="#FEFEFE" d="M154.322 532.776c.479 40.512 33.343 73.379 73.85 73.857-.477-40.511-33.341-73.378-73.85-73.857zm75.635 75.641h-.89c-42.197 0-76.53-34.333-76.53-76.536v-.888h.89c42.2 0 76.53 34.333 76.53 76.535v.89zM305.597 757.928h73.861v-73.866h-73.86v73.866zm-1.778 1.78h77.419v-77.425h-77.42v77.424z" mask="url(#d)"/>
            <path fill="#FEFEFE" d="M305.603 684.067c.479 40.51 33.343 73.377 73.85 73.856-.478-40.51-33.343-73.377-73.85-73.856zm75.635 75.64h-.89c-42.199 0-76.53-34.332-76.53-76.535v-.889h.89c42.198 0 76.53 34.334 76.53 76.535v.89zM305.597 530.992h73.861v-73.865h-73.86v73.865zm-1.778 1.78h77.419v-77.424h-77.42v77.423z" mask="url(#d)"/>
            <path fill="#FEFEFE" d="M305.603 457.132c.479 40.51 33.343 73.377 73.85 73.855-.478-40.51-33.343-73.377-73.85-73.855zm75.635 75.64h-.89c-42.199 0-76.53-34.334-76.53-76.535v-.89h.89c42.198 0 76.53 34.334 76.53 76.535v.89zM381.238 682.283h73.861v-73.866h-73.861v73.866zm-1.78 1.779h77.42v-77.424h-77.42v77.424z" mask="url(#d)"/>
            <path fill="#FEFEFE" d="M381.238 608.417v73.86c40.513-.474 73.38-33.344 73.856-73.86h-73.856zm-.89 75.645h-.89v-77.424h77.42v.89c0 42.202-34.331 76.534-76.53 76.534z" mask="url(#d)"/>
            <path fill="#FEFEFE" d="M381.238 608.417v36.033c19.659-.467 35.563-16.372 36.03-36.033h-36.03zm-.89 37.823h-.89v-39.602h39.6v.89c0 21.346-17.366 38.712-38.71 38.712zM229.958 757.928h73.86v-73.866h-73.86v73.866zm-1.78 1.78h77.42v-77.425h-77.42v77.424z" mask="url(#d)"/>
            <path fill="#FEFEFE" d="M229.957 684.062v73.86c40.514-.474 73.38-33.343 73.856-73.86h-73.856zm-.89 75.645h-.89v-77.424h77.42v.89c0 42.202-34.33 76.534-76.53 76.534z" mask="url(#d)"/>
            <path fill="#FEFEFE" d="M229.957 684.062v36.033c19.66-.467 35.564-16.371 36.031-36.033h-36.03zm-.89 37.823h-.89v-39.602h39.6v.89c0 21.346-17.364 38.712-38.71 38.712zM2.993 833.568h73.86v-73.866H2.994v73.866zm-1.779 1.779h77.42v-77.424H1.213v77.424zM229.912 1136.149h73.862v-73.866h-73.862v73.866zm-1.778 1.78h77.42v-77.425h-77.42v77.424zM78.633 984.859h73.861v-73.867h-73.86v73.867zm-1.779 1.778h77.419v-77.424H76.854v77.424z" mask="url(#d)"/>
            <path fill="#FEFEFE" d="M154.273 909.213h73.86v-73.866h-73.86v73.866zm-1.779 1.779h77.418v-77.423h-77.418v77.423zM154.273 1060.503h73.86v-73.866h-73.86v73.866zm-1.779 1.78h77.418v-77.424h-77.418v77.424zM532.473 909.213h73.862v-73.866h-73.862v73.866zm-1.778 1.779h77.42v-77.423h-77.42v77.423zM532.474 1136.15h73.861v-73.867h-73.86v73.866zm-1.778 1.778h77.419v-77.425h-77.42v77.425z" mask="url(#d)"/>
            <path fill="#FEFEFE" d="M608.115 833.568h73.86v-73.866h-73.86v73.866zm-1.78 1.779h77.419v-77.424h-77.419v77.424zM456.833 1060.503h73.861v-73.866h-73.86v73.866zm-1.778 1.78h77.418v-77.424h-77.418v77.424zM78.633 833.568h73.861v-73.866h-73.86v73.866zm-1.779 1.779h77.419v-77.424H76.854v77.424z" mask="url(#d)"/>
            <path fill="#FEFEFE" d="M78.633 833.568h72.603l-72.603-72.609v72.609zm76.898 1.779H76.854v-78.682l78.677 78.682zM305.553 1136.149h73.861v-73.866h-73.861v73.866zm-1.779 1.78h77.42v-77.425h-77.42v77.424z" mask="url(#d)"/>
            <path fill="#FEFEFE" d="M305.553 1136.149h72.604l-72.604-72.609v72.609zm76.898 1.78l-78.678-.001v-78.682l78.678 78.682zM78.633 909.213h73.861v-73.866h-73.86v73.866zm-1.779 1.779h77.419v-77.423H76.854v77.423z" mask="url(#d)"/>
            <path fill="#FEFEFE" d="M78.633 835.347v72.608l72.603-72.608H78.633zm-1.78 76.902v-78.681h78.678l-78.677 78.681zM305.553 1060.503h73.861v-73.866h-73.86v73.866zm-1.778 1.78h77.419v-77.424h-77.42v77.424z" mask="url(#d)"/>
            <path fill="#FEFEFE" d="M305.553 986.638v72.608l72.604-72.608h-72.604zm-1.779 76.902v-78.682h78.677l-78.677 78.682zM683.754 909.213h73.86v-73.866h-73.86v73.866zm-1.779 1.779h77.419v-77.423h-77.419v77.423z" mask="url(#d)"/>
            <path fill="#FEFEFE" d="M683.754 909.213h72.604l-72.604-72.608v72.608zm76.897 1.779h-78.676V832.31l78.676 78.682z" mask="url(#d)"/>
            <path fill="#FEFEFE" d="M683.754 984.859h73.86v-73.867h-73.86v73.867zm-1.779 1.778h77.419v-77.424h-77.419v77.424z" mask="url(#d)"/>
            <path fill="#FEFEFE" d="M683.754 910.992V983.6l72.604-72.608h-72.604zm-1.78 76.904v-78.684h78.677l-78.676 78.684z" mask="url(#d)"/>
            <path fill="#FEFEFE" d="M608.115 984.859h73.86v-73.867h-73.86v73.867zm-1.78 1.778h77.419v-77.424h-77.419v77.424z" mask="url(#d)"/>
            <path fill="#FEFEFE" d="M609.372 910.992l72.603 72.608v-72.608h-72.603zm74.382 76.904l-78.677-78.684h78.677v78.684z" mask="url(#d)"/>
            <path fill="#FEFEFE" d="M608.115 909.213h73.86v-73.866h-73.86v73.866zm-1.78 1.779h77.419v-77.423h-77.419v77.423z" mask="url(#d)"/>
            <path fill="#FEFEFE" d="M609.372 909.213h72.603v-72.608l-72.603 72.608zm74.382 1.779h-78.677l78.677-78.682v78.682zM2.993 984.859h73.86v-73.867H2.994v73.867zm-1.779 1.778h77.42v-77.424H1.213v77.424z" mask="url(#d)"/>
            <path fill="#FEFEFE" d="M2.993 910.992V983.6l72.604-72.608H2.993zm-1.78 76.904v-78.684H79.89L1.214 987.896zM78.633 1136.149h73.861v-73.866h-73.86v73.866zm-1.779 1.78h77.419v-77.425H76.854v77.424z" mask="url(#d)"/>
            <path fill="#FEFEFE" d="M78.633 1062.283v72.608l72.603-72.608H78.633zm-1.78 76.902v-78.682h78.678l-78.677 78.682z" mask="url(#d)"/>
            <path fill="#FEFEFE" d="M154.273 1136.149h73.86v-73.866h-73.86v73.866zm-1.779 1.78h77.418v-77.425h-77.418v77.424z" mask="url(#d)"/>
            <path fill="#FEFEFE" d="M155.53 1062.283l72.604 72.608v-72.608H155.53zm74.382 76.902l-78.676-78.682h78.676v78.682z" mask="url(#d)"/>
            <path fill="#FEFEFE" d="M78.633 1060.503h73.861v-73.866h-73.86v73.866zm-1.779 1.78h77.419v-77.424H76.854v77.424z" mask="url(#d)"/>
            <path fill="#FEFEFE" d="M79.89 1060.503h72.604v-72.608l-72.603 72.608zm74.382 1.78H75.596l78.676-78.682v78.682zM381.194 909.213h73.86v-73.866h-73.86v73.866zm-1.78 1.779h77.42v-77.423h-77.42v77.423z" mask="url(#d)"/>
            <path fill="#FEFEFE" d="M381.193 909.213h72.604l-72.604-72.608v72.608zm76.898 1.779h-78.677V832.31l78.677 78.682zM532.473 1060.503h73.862v-73.866h-73.862v73.866zm-1.778 1.78h77.42v-77.424h-77.42v77.424z" mask="url(#d)"/>
            <path fill="#FEFEFE" d="M532.473 1060.503h72.605l-72.605-72.608v72.608zm76.899 1.78h-78.678V983.6l78.678 78.682zM154.273 833.568h73.86v-73.866h-73.86v73.866zm-1.779 1.779h77.418v-77.424h-77.418v77.424z" mask="url(#d)"/>
            <path fill="#FEFEFE" d="M191.203 759.702c-20.363 0-36.93 16.568-36.93 36.933 0 20.364 16.567 36.933 36.93 36.933s36.93-16.569 36.93-36.933c0-20.365-16.567-36.933-36.93-36.933m0 75.645c-21.345 0-38.71-17.366-38.71-38.712 0-21.347 17.365-38.712 38.71-38.712 21.345 0 38.71 17.365 38.71 38.712 0 21.346-17.365 38.712-38.71 38.712M2.993 1136.149h73.86v-73.866H2.994v73.866zm-1.779 1.78h77.42v-77.425H1.213v77.424z" mask="url(#d)"/>
            <path fill="#FEFEFE" d="M39.923 1062.283c-20.363 0-36.93 16.568-36.93 36.933 0 20.364 16.567 36.933 36.93 36.933s36.93-16.57 36.93-36.933c0-20.365-16.567-36.933-36.93-36.933m0 75.645c-21.345 0-38.71-17.366-38.71-38.712 0-21.347 17.365-38.713 38.71-38.713 21.345 0 38.71 17.366 38.71 38.713 0 21.346-17.365 38.712-38.71 38.712M381.194 1136.149h73.86v-73.866h-73.86v73.866zm-1.78 1.78h77.42v-77.425h-77.42v77.424z" mask="url(#d)"/>
            <path fill="#FEFEFE" d="M418.124 1062.283c-20.363 0-36.93 16.568-36.93 36.933 0 20.364 16.567 36.933 36.93 36.933s36.93-16.57 36.93-36.933c0-20.365-16.567-36.933-36.93-36.933m0 75.645c-21.345 0-38.71-17.366-38.71-38.712 0-21.347 17.365-38.713 38.71-38.713 21.344 0 38.71 17.366 38.71 38.713 0 21.346-17.366 38.712-38.71 38.712M154.273 984.859h73.86v-73.867h-73.86v73.867zm-1.779 1.778h77.418v-77.424h-77.418v77.424z" mask="url(#d)"/>
            <path fill="#FEFEFE" d="M191.203 910.992c-20.363 0-36.93 16.569-36.93 36.933 0 20.365 16.567 36.933 36.93 36.933s36.93-16.568 36.93-36.933c0-20.364-16.567-36.933-36.93-36.933m0 75.646c-21.345 0-38.71-17.367-38.71-38.713s17.365-38.713 38.71-38.713c21.345 0 38.71 17.367 38.71 38.713s-17.365 38.713-38.71 38.713M683.754 1060.503h73.86v-73.866h-73.86v73.866zm-1.779 1.78h77.419v-77.424h-77.419v77.424z" mask="url(#d)"/>
            <path fill="#FEFEFE" d="M720.684 986.638c-20.362 0-36.93 16.568-36.93 36.932 0 20.365 16.568 36.933 36.93 36.933 20.364 0 36.93-16.568 36.93-36.933 0-20.364-16.566-36.932-36.93-36.932m0 75.645c-21.344 0-38.71-17.366-38.71-38.713 0-21.345 17.366-38.712 38.71-38.712 21.346 0 38.71 17.367 38.71 38.712 0 21.347-17.364 38.713-38.71 38.713" mask="url(#d)"/>
            <path fill="#FEFEFE" d="M608.115 1060.503h73.86v-73.866h-73.86v73.866zm-1.78 1.78h77.419v-77.424h-77.419v77.424z" mask="url(#d)"/>
            <path fill="#FEFEFE" d="M645.044 986.638c-20.362 0-36.93 16.568-36.93 36.932 0 20.365 16.568 36.933 36.93 36.933 20.364 0 36.93-16.568 36.93-36.933 0-20.364-16.566-36.932-36.93-36.932m0 75.645c-21.344 0-38.709-17.366-38.709-38.713 0-21.345 17.365-38.712 38.71-38.712 21.344 0 38.71 17.367 38.71 38.712 0 21.347-17.366 38.713-38.71 38.713M381.194 984.859h73.86v-73.867h-73.86v73.867zm-1.78 1.778h77.42v-77.424h-77.42v77.424z" mask="url(#d)"/>
            <path fill="#FEFEFE" d="M418.124 910.992c-20.363 0-36.93 16.569-36.93 36.933 0 20.365 16.567 36.933 36.93 36.933s36.93-16.568 36.93-36.933c0-20.364-16.567-36.933-36.93-36.933m0 75.646c-21.345 0-38.71-17.366-38.71-38.713 0-21.346 17.365-38.713 38.71-38.713 21.344 0 38.71 17.367 38.71 38.713 0 21.347-17.366 38.713-38.71 38.713M532.473 833.568h73.862v-73.866h-73.862v73.866zm-1.778 1.779h77.42v-77.424h-77.42v77.424z" mask="url(#d)"/>
            <path fill="#FEFEFE" d="M569.405 759.702c-20.364 0-36.932 16.568-36.932 36.933 0 20.364 16.568 36.933 36.932 36.933 20.362 0 36.93-16.569 36.93-36.933 0-20.365-16.568-36.933-36.93-36.933m0 75.645c-21.345 0-38.71-17.366-38.71-38.712 0-21.347 17.365-38.712 38.71-38.712 21.344 0 38.71 17.365 38.71 38.712 0 21.346-17.366 38.712-38.71 38.712M229.912 909.213h73.862v-73.866h-73.862v73.866zm-1.778 1.779h77.42v-77.423h-77.42v77.423z" mask="url(#d)"/>
            <path fill="#FEFEFE" d="M266.843 835.347c-20.363 0-36.93 16.569-36.93 36.933s16.567 36.933 36.93 36.933c20.364 0 36.931-16.569 36.931-36.933s-16.567-36.933-36.93-36.933m0 75.645c-21.345 0-38.71-17.366-38.71-38.712 0-21.346 17.365-38.712 38.71-38.712 21.344 0 38.71 17.366 38.71 38.712 0 21.346-17.366 38.712-38.71 38.712" mask="url(#d)"/>
            <path fill="#FEFEFE" d="M266.843 854.258c-9.936 0-18.02 8.085-18.02 18.021 0 9.938 8.084 18.022 18.02 18.022 9.938 0 18.022-8.084 18.022-18.022 0-9.936-8.084-18.02-18.022-18.02m0 37.822c-10.917 0-19.8-8.883-19.8-19.802 0-10.918 8.883-19.8 19.8-19.8 10.918 0 19.8 8.882 19.8 19.8 0 10.92-8.882 19.802-19.8 19.802M229.912 1060.503h73.862v-73.866h-73.862v73.866zm-1.778 1.78h77.42v-77.424h-77.42v77.424z" mask="url(#d)"/>
            <path fill="#FEFEFE" d="M266.843 986.638c-20.363 0-36.93 16.568-36.93 36.932 0 20.365 16.567 36.933 36.93 36.933 20.364 0 36.931-16.568 36.931-36.933 0-20.364-16.567-36.932-36.93-36.932m0 75.645c-21.345 0-38.71-17.366-38.71-38.713 0-21.345 17.365-38.712 38.71-38.712 21.344 0 38.71 17.367 38.71 38.712 0 21.347-17.366 38.713-38.71 38.713" mask="url(#d)"/>
            <path fill="#FEFEFE" d="M266.843 1005.55c-9.936 0-18.02 8.084-18.02 18.02 0 9.938 8.084 18.022 18.02 18.022 9.938 0 18.022-8.084 18.022-18.022 0-9.936-8.084-18.02-18.022-18.02m0 37.821c-10.917 0-19.8-8.882-19.8-19.8 0-10.919 8.883-19.801 19.8-19.801 10.918 0 19.8 8.882 19.8 19.8 0 10.92-8.882 19.801-19.8 19.801M683.754 833.568h73.86v-73.866h-73.86v73.866zm-1.779 1.779h77.419v-77.424h-77.419v77.424z" mask="url(#d)"/>
            <path fill="#FEFEFE" d="M720.684 759.702c-20.362 0-36.93 16.568-36.93 36.933 0 20.364 16.568 36.933 36.93 36.933 20.364 0 36.93-16.569 36.93-36.933 0-20.365-16.566-36.933-36.93-36.933m0 75.645c-21.344 0-38.71-17.366-38.71-38.712 0-21.347 17.366-38.712 38.71-38.712 21.346 0 38.71 17.365 38.71 38.712 0 21.346-17.364 38.712-38.71 38.712" mask="url(#d)"/>
            <path fill="#FEFEFE" d="M720.684 778.613c-9.936 0-18.02 8.085-18.02 18.022 0 9.937 8.084 18.021 18.02 18.021 9.937 0 18.021-8.084 18.021-18.021 0-9.937-8.084-18.022-18.02-18.022m0 37.823c-10.918 0-19.8-8.883-19.8-19.801 0-10.919 8.882-19.801 19.8-19.801 10.917 0 19.8 8.882 19.8 19.801 0 10.918-8.883 19.8-19.8 19.8M608.115 1136.149h73.86v-73.866h-73.86v73.866zm-1.78 1.78h77.419v-77.425h-77.419v77.424z" mask="url(#d)"/>
            <path fill="#FEFEFE" d="M645.044 1062.283c-20.362 0-36.93 16.568-36.93 36.933 0 20.364 16.568 36.933 36.93 36.933 20.364 0 36.93-16.57 36.93-36.933 0-20.365-16.566-36.933-36.93-36.933m0 75.645c-21.344 0-38.709-17.366-38.709-38.712 0-21.347 17.365-38.713 38.71-38.713 21.344 0 38.71 17.366 38.71 38.713 0 21.346-17.366 38.712-38.71 38.712" mask="url(#d)"/>
            <path fill="#FEFEFE" d="M645.044 1081.194c-9.936 0-18.02 8.085-18.02 18.022 0 9.936 8.084 18.02 18.02 18.02 9.937 0 18.021-8.084 18.021-18.02 0-9.937-8.084-18.022-18.02-18.022m0 37.822c-10.918 0-19.8-8.882-19.8-19.8 0-10.92 8.882-19.801 19.8-19.801 10.917 0 19.8 8.882 19.8 19.8 0 10.919-8.883 19.801-19.8 19.801M456.833 984.859h73.861v-73.867h-73.86v73.867zm-1.778 1.778h77.418v-77.424h-77.418v77.424z" mask="url(#d)"/>
            <path fill="#FEFEFE" d="M493.764 910.992c-20.363 0-36.93 16.569-36.93 36.933 0 20.365 16.567 36.933 36.93 36.933s36.93-16.568 36.93-36.933c0-20.364-16.567-36.933-36.93-36.933m0 75.646c-21.345 0-38.71-17.367-38.71-38.713s17.365-38.713 38.71-38.713c21.345 0 38.71 17.367 38.71 38.713s-17.365 38.713-38.71 38.713" mask="url(#d)"/>
            <path fill="#FEFEFE" d="M493.764 929.903c-9.937 0-18.02 8.085-18.02 18.022 0 9.938 8.083 18.022 18.02 18.022 9.936 0 18.02-8.084 18.02-18.022 0-9.937-8.084-18.022-18.02-18.022m0 37.824c-10.918 0-19.8-8.884-19.8-19.802s8.882-19.801 19.8-19.801c10.917 0 19.8 8.883 19.8 19.8 0 10.92-8.883 19.803-19.8 19.803M229.912 833.568h73.862v-73.866h-73.862v73.866zm-1.778 1.779h77.42v-77.424h-77.42v77.424z" mask="url(#d)"/>
            <path fill="#FEFEFE" d="M229.918 759.702c.475 40.516 33.343 73.385 73.856 73.86v-73.86h-73.856zm75.635 75.645h-.89c-42.197 0-76.53-34.333-76.53-76.535v-.89h77.42v77.425zM456.833 909.213h73.861v-73.866h-73.86v73.866zm-1.778 1.779h77.418v-77.423h-77.418v77.423z" mask="url(#d)"/>
            <path fill="#FEFEFE" d="M456.839 835.347c.475 40.516 33.342 73.385 73.855 73.86v-73.86H456.84zm75.634 75.645h-.889c-42.199 0-76.53-34.333-76.53-76.535v-.89h77.42v77.425zM305.553 984.859h73.861v-73.867h-73.86v73.867zm-1.778 1.778h77.419v-77.424h-77.42v77.424z" mask="url(#d)"/>
            <path fill="#FEFEFE" d="M305.558 910.992c.475 40.515 33.343 73.386 73.856 73.861v-73.861h-73.856zm75.636 75.646h-.89c-42.198 0-76.53-34.334-76.53-76.536v-.89h77.42v77.426zM305.553 833.568h73.861v-73.866h-73.86v73.866zm-1.778 1.779h77.419v-77.424h-77.42v77.424z" mask="url(#d)"/>
            <path fill="#FEFEFE" d="M305.553 759.702v73.86c40.514-.475 73.381-33.344 73.856-73.86h-73.856zm-.89 75.645h-.889v-77.424h77.42v.89c0 42.2-34.33 76.534-76.53 76.534zM2.993 909.213h73.86v-73.866H2.994v73.866zm-1.779 1.779h77.42v-77.423H1.213v77.423z" mask="url(#d)"/>
            <path fill="#FEFEFE" d="M2.998 835.352c.479 40.51 33.343 73.377 73.85 73.855-.478-40.51-33.342-73.376-73.85-73.855zm75.635 75.64h-.89c-42.198 0-76.529-34.333-76.529-76.535v-.889h.89c42.198 0 76.53 34.333 76.53 76.534v.89zM2.993 1060.503h73.86v-73.866H2.994v73.866zm-1.779 1.78h77.42v-77.424H1.213v77.424z" mask="url(#d)"/>
            <path fill="#FEFEFE" d="M76.849 986.643c-40.508.479-73.372 33.345-73.85 73.855 40.506-.478 73.37-33.345 73.85-73.855m-74.746 75.64h-.89v-.89c0-42.2 34.331-76.534 76.53-76.534h.89v.889c0 42.202-34.332 76.535-76.53 76.535M229.912 984.859h73.861v-73.867h-73.86v73.867zm-1.778 1.778h77.419v-77.424h-77.42v77.424z" mask="url(#d)"/>
            <path fill="#FEFEFE" d="M303.768 910.997c-40.507.479-73.372 33.345-73.85 73.856 40.507-.478 73.371-33.345 73.85-73.856m-74.745 75.64h-.89v-.89c0-42.2 34.332-76.534 76.53-76.534h.89v.889c0 42.202-34.331 76.536-76.53 76.536M532.473 984.859h73.862v-73.867h-73.862v73.867zm-1.778 1.778h77.42v-77.424h-77.42v77.424z" mask="url(#d)"/>
            <path fill="#FEFEFE" d="M532.478 910.998c.48 40.51 33.344 73.377 73.852 73.855-.478-40.51-33.343-73.376-73.852-73.855zm75.637 75.64h-.89c-42.199 0-76.53-34.333-76.53-76.535v-.889h.889c42.199 0 76.53 34.333 76.53 76.534v.89zM683.754 1136.15h73.862v-73.867h-73.862v73.866zm-1.779 1.778h77.42v-77.425h-77.42v77.425z" mask="url(#d)"/>
            <path fill="#FEFEFE" d="M757.61 1062.288c-40.508.479-73.372 33.345-73.85 73.855 40.508-.478 73.372-33.345 73.85-73.855m-74.746 75.64h-.89v-.89c0-42.201 34.333-76.534 76.531-76.534h.89v.889c0 42.201-34.332 76.535-76.53 76.535M381.194 833.568h73.86v-73.866h-73.86v73.866zm-1.78 1.779h77.42v-77.424h-77.42v77.424z" mask="url(#d)"/>
            <path fill="#FEFEFE" d="M381.199 759.707c.479 40.51 33.343 73.377 73.85 73.855-.478-40.51-33.343-73.376-73.85-73.855zm75.635 75.64h-.89c-42.199 0-76.53-34.333-76.53-76.535v-.889h.89c42.198 0 76.53 34.333 76.53 76.534v.89zM456.833 1136.149h73.861v-73.866h-73.86v73.866zm-1.778 1.78h77.418v-77.425h-77.418v77.424z" mask="url(#d)"/>
            <path fill="#FEFEFE" d="M456.839 1062.288c.478 40.51 33.343 73.377 73.85 73.855-.478-40.51-33.343-73.376-73.85-73.855zm75.634 75.64h-.889c-42.199 0-76.53-34.334-76.53-76.535v-.89h.89c42.199 0 76.53 34.334 76.53 76.535v.89z" mask="url(#d)"/>
            <path fill="#FEFEFE" d="M381.194 1060.503h73.86v-73.866h-73.86v73.866zm-1.78 1.78h77.42v-77.424h-77.42v77.424z" mask="url(#d)"/>
            <path fill="#FEFEFE" d="M381.199 986.643c.479 40.51 33.343 73.377 73.85 73.855-.478-40.51-33.343-73.376-73.85-73.855zm75.635 75.64h-.89c-42.199 0-76.53-34.333-76.53-76.535v-.89h.89c42.198 0 76.53 34.334 76.53 76.535v.89zM305.553 909.213h73.861v-73.866h-73.86v73.866zm-1.778 1.779h77.419v-77.423h-77.42v77.423z" mask="url(#d)"/>
            <path fill="#FEFEFE" d="M305.558 909.213h73.856v-73.861c-40.513.476-73.38 33.345-73.856 73.86zm75.636 1.779h-77.42v-.89c0-42.201 34.332-76.534 76.53-76.534h.89v77.424z" mask="url(#d)"/>
            <path fill="#FEFEFE" d="M343.384 909.213h36.03v-36.034c-19.659.467-35.564 16.373-36.03 36.034zm37.81 1.779h-39.6v-.89c0-21.346 17.366-38.712 38.71-38.712h.89v39.602zM456.833 833.568h73.861v-73.866h-73.86v73.866zm-1.778 1.779h77.418v-77.424h-77.418v77.424z" mask="url(#d)"/>
            <path fill="#FEFEFE" d="M456.839 833.568h73.855v-73.86c-40.513.474-73.38 33.344-73.855 73.86zm75.634 1.779h-77.418v-.89c0-42.202 34.33-76.534 76.53-76.534h.888v77.424z" mask="url(#d)"/>
            <path fill="#FEFEFE" d="M494.664 833.568h36.03v-36.033c-19.66.467-35.564 16.372-36.03 36.033zm37.809 1.779h-39.598v-.89c0-21.346 17.364-38.712 38.709-38.712h.889v39.602z" mask="url(#d)"/>
        </g>
    </g>
</svg>
